<svg width="267" height="287" viewBox="0 0 267 287" fill="none" xmlns="http://www.w3.org/2000/svg">
<path d="M9.36359 9.4C10.0263 9.4 10.5636 8.86275 10.5636 8.2C10.5636 7.53726 10.0263 7 9.36359 7C8.70084 7 8.16357 7.53726 8.16357 8.2C8.16357 8.86275 8.70084 9.4 9.36359 9.4Z" fill="white"/>
<path d="M24.3433 8.2C24.3433 8.86 23.8034 9.4 23.1434 9.4C22.4834 9.4 21.9434 8.86 21.9434 8.2C21.9434 7.54 22.4834 7 23.1434 7C23.8034 7.01 24.3433 7.54 24.3433 8.2Z" fill="white"/>
<path d="M36.9236 9.4C37.5864 9.4 38.1237 8.86275 38.1237 8.2C38.1237 7.53726 37.5864 7 36.9236 7C36.2609 7 35.7236 7.53726 35.7236 8.2C35.7236 8.86275 36.2609 9.4 36.9236 9.4Z" fill="white"/>
<path d="M50.7034 9.4C51.3662 9.4 51.9034 8.86275 51.9034 8.2C51.9034 7.53726 51.3662 7 50.7034 7C50.0407 7 49.5034 7.53726 49.5034 8.2C49.5034 8.86275 50.0407 9.4 50.7034 9.4Z" fill="white"/>
<path d="M64.4832 9.4C65.146 9.4 65.6832 8.86275 65.6832 8.2C65.6832 7.53726 65.146 7 64.4832 7C63.8205 7 63.2832 7.53726 63.2832 8.2C63.2832 8.86275 63.8205 9.4 64.4832 9.4Z" fill="white"/>
<path d="M78.2733 9.4C78.936 9.4 79.4732 8.86275 79.4732 8.2C79.4732 7.53726 78.936 7 78.2733 7C77.6105 7 77.0732 7.53726 77.0732 8.2C77.0732 8.86275 77.6105 9.4 78.2733 9.4Z" fill="white"/>
<path d="M92.0535 9.4C92.7163 9.4 93.2535 8.86275 93.2535 8.2C93.2535 7.53726 92.7163 7 92.0535 7C91.3908 7 90.8535 7.53726 90.8535 8.2C90.8535 8.86275 91.3908 9.4 92.0535 9.4Z" fill="white"/>
<path d="M105.833 9.4C106.496 9.4 107.033 8.86275 107.033 8.2C107.033 7.53726 106.496 7 105.833 7C105.171 7 104.633 7.53726 104.633 8.2C104.633 8.86275 105.171 9.4 105.833 9.4Z" fill="white"/>
<path d="M120.814 8.2C120.814 8.86 120.274 9.4 119.614 9.4C118.954 9.4 118.414 8.86 118.414 8.2C118.414 7.54 118.954 7 119.614 7C120.274 7.01 120.814 7.54 120.814 8.2Z" fill="white"/>
<path d="M133.393 9.4C134.056 9.4 134.593 8.86275 134.593 8.2C134.593 7.53726 134.056 7 133.393 7C132.731 7 132.193 7.53726 132.193 8.2C132.193 8.86275 132.731 9.4 133.393 9.4Z" fill="white"/>
<path d="M147.174 9.4C147.836 9.4 148.374 8.86275 148.374 8.2C148.374 7.53726 147.836 7 147.174 7C146.511 7 145.974 7.53726 145.974 8.2C145.974 8.86275 146.511 9.4 147.174 9.4Z" fill="white"/>
<path d="M160.964 9.4C161.626 9.4 162.164 8.86275 162.164 8.2C162.164 7.53726 161.626 7 160.964 7C160.301 7 159.764 7.53726 159.764 8.2C159.764 8.86275 160.301 9.4 160.964 9.4Z" fill="white"/>
<path d="M174.743 9.4C175.406 9.4 175.943 8.86275 175.943 8.2C175.943 7.53726 175.406 7 174.743 7C174.081 7 173.543 7.53726 173.543 8.2C173.543 8.86275 174.081 9.4 174.743 9.4Z" fill="white"/>
<path d="M188.523 9.4C189.186 9.4 189.723 8.86275 189.723 8.2C189.723 7.53726 189.186 7 188.523 7C187.861 7 187.323 7.53726 187.323 8.2C187.323 8.86275 187.861 9.4 188.523 9.4Z" fill="white"/>
<path d="M202.304 9.4C202.966 9.4 203.504 8.86275 203.504 8.2C203.504 7.53726 202.966 7 202.304 7C201.641 7 201.104 7.53726 201.104 8.2C201.104 8.86275 201.641 9.4 202.304 9.4Z" fill="white"/>
<path d="M216.083 9.4C216.746 9.4 217.283 8.86275 217.283 8.2C217.283 7.53726 216.746 7 216.083 7C215.421 7 214.883 7.53726 214.883 8.2C214.883 8.86275 215.421 9.4 216.083 9.4Z" fill="white"/>
<path d="M229.864 9.4C230.526 9.4 231.064 8.86275 231.064 8.2C231.064 7.53726 230.526 7 229.864 7C229.201 7 228.664 7.53726 228.664 8.2C228.664 8.86275 229.201 9.4 229.864 9.4Z" fill="white"/>
<path d="M244.843 8.2C244.843 8.86 244.303 9.4 243.643 9.4C242.983 9.4 242.443 8.86 242.443 8.2C242.443 7.54 242.983 7 243.643 7C244.313 7.01 244.843 7.54 244.843 8.2Z" fill="white"/>
<path d="M257.433 9.4C258.096 9.4 258.633 8.86275 258.633 8.2C258.633 7.53726 258.096 7 257.433 7C256.771 7 256.233 7.53726 256.233 8.2C256.233 8.86275 256.771 9.4 257.433 9.4Z" fill="white"/>
<path d="M9.36359 22.89C10.0263 22.89 10.5636 22.3527 10.5636 21.69C10.5636 21.0273 10.0263 20.49 9.36359 20.49C8.70084 20.49 8.16357 21.0273 8.16357 21.69C8.16357 22.3527 8.70084 22.89 9.36359 22.89Z" fill="white"/>
<path d="M24.3433 21.69C24.3433 22.35 23.8034 22.89 23.1434 22.89C22.4834 22.89 21.9434 22.35 21.9434 21.69C21.9434 21.03 22.4834 20.49 23.1434 20.49C23.8034 20.49 24.3433 21.02 24.3433 21.69Z" fill="white"/>
<path d="M36.9236 22.89C37.5864 22.89 38.1237 22.3527 38.1237 21.69C38.1237 21.0273 37.5864 20.49 36.9236 20.49C36.2609 20.49 35.7236 21.0273 35.7236 21.69C35.7236 22.3527 36.2609 22.89 36.9236 22.89Z" fill="white"/>
<path d="M50.7034 22.89C51.3662 22.89 51.9034 22.3527 51.9034 21.69C51.9034 21.0273 51.3662 20.49 50.7034 20.49C50.0407 20.49 49.5034 21.0273 49.5034 21.69C49.5034 22.3527 50.0407 22.89 50.7034 22.89Z" fill="white"/>
<path d="M64.4832 22.89C65.146 22.89 65.6832 22.3527 65.6832 21.69C65.6832 21.0273 65.146 20.49 64.4832 20.49C63.8205 20.49 63.2832 21.0273 63.2832 21.69C63.2832 22.3527 63.8205 22.89 64.4832 22.89Z" fill="white"/>
<path d="M78.2733 22.89C78.936 22.89 79.4732 22.3527 79.4732 21.69C79.4732 21.0273 78.936 20.49 78.2733 20.49C77.6105 20.49 77.0732 21.0273 77.0732 21.69C77.0732 22.3527 77.6105 22.89 78.2733 22.89Z" fill="white"/>
<path d="M92.0535 22.89C92.7163 22.89 93.2535 22.3527 93.2535 21.69C93.2535 21.0273 92.7163 20.49 92.0535 20.49C91.3908 20.49 90.8535 21.0273 90.8535 21.69C90.8535 22.3527 91.3908 22.89 92.0535 22.89Z" fill="white"/>
<path d="M105.833 22.89C106.496 22.89 107.033 22.3527 107.033 21.69C107.033 21.0273 106.496 20.49 105.833 20.49C105.171 20.49 104.633 21.0273 104.633 21.69C104.633 22.3527 105.171 22.89 105.833 22.89Z" fill="white"/>
<path d="M120.814 21.69C120.814 22.35 120.274 22.89 119.614 22.89C118.954 22.89 118.414 22.35 118.414 21.69C118.414 21.03 118.954 20.49 119.614 20.49C120.274 20.49 120.814 21.02 120.814 21.69Z" fill="white"/>
<path d="M133.393 22.89C134.056 22.89 134.593 22.3527 134.593 21.69C134.593 21.0273 134.056 20.49 133.393 20.49C132.731 20.49 132.193 21.0273 132.193 21.69C132.193 22.3527 132.731 22.89 133.393 22.89Z" fill="white"/>
<path d="M147.174 22.89C147.836 22.89 148.374 22.3527 148.374 21.69C148.374 21.0273 147.836 20.49 147.174 20.49C146.511 20.49 145.974 21.0273 145.974 21.69C145.974 22.3527 146.511 22.89 147.174 22.89Z" fill="white"/>
<path d="M160.964 22.89C161.626 22.89 162.164 22.3527 162.164 21.69C162.164 21.0273 161.626 20.49 160.964 20.49C160.301 20.49 159.764 21.0273 159.764 21.69C159.764 22.3527 160.301 22.89 160.964 22.89Z" fill="white"/>
<path d="M174.743 22.89C175.406 22.89 175.943 22.3527 175.943 21.69C175.943 21.0273 175.406 20.49 174.743 20.49C174.081 20.49 173.543 21.0273 173.543 21.69C173.543 22.3527 174.081 22.89 174.743 22.89Z" fill="white"/>
<path d="M188.523 22.89C189.186 22.89 189.723 22.3527 189.723 21.69C189.723 21.0273 189.186 20.49 188.523 20.49C187.861 20.49 187.323 21.0273 187.323 21.69C187.323 22.3527 187.861 22.89 188.523 22.89Z" fill="white"/>
<path d="M202.304 22.89C202.966 22.89 203.504 22.3527 203.504 21.69C203.504 21.0273 202.966 20.49 202.304 20.49C201.641 20.49 201.104 21.0273 201.104 21.69C201.104 22.3527 201.641 22.89 202.304 22.89Z" fill="white"/>
<path d="M216.083 22.89C216.746 22.89 217.283 22.3527 217.283 21.69C217.283 21.0273 216.746 20.49 216.083 20.49C215.421 20.49 214.883 21.0273 214.883 21.69C214.883 22.3527 215.421 22.89 216.083 22.89Z" fill="white"/>
<path d="M229.864 22.89C230.526 22.89 231.064 22.3527 231.064 21.69C231.064 21.0273 230.526 20.49 229.864 20.49C229.201 20.49 228.664 21.0273 228.664 21.69C228.664 22.3527 229.201 22.89 229.864 22.89Z" fill="white"/>
<path d="M244.843 21.69C244.843 22.35 244.303 22.89 243.643 22.89C242.983 22.89 242.443 22.35 242.443 21.69C242.443 21.03 242.983 20.49 243.643 20.49C244.313 20.49 244.843 21.02 244.843 21.69Z" fill="white"/>
<path d="M257.433 22.89C258.096 22.89 258.633 22.3527 258.633 21.69C258.633 21.0273 258.096 20.49 257.433 20.49C256.771 20.49 256.233 21.0273 256.233 21.69C256.233 22.3527 256.771 22.89 257.433 22.89Z" fill="white"/>
<path d="M9.36359 36.37C10.0263 36.37 10.5636 35.8327 10.5636 35.17C10.5636 34.5072 10.0263 33.97 9.36359 33.97C8.70084 33.97 8.16357 34.5072 8.16357 35.17C8.16357 35.8327 8.70084 36.37 9.36359 36.37Z" fill="white"/>
<path d="M24.3433 35.17C24.3433 35.83 23.8034 36.37 23.1434 36.37C22.4834 36.37 21.9434 35.83 21.9434 35.17C21.9434 34.51 22.4834 33.97 23.1434 33.97C23.8034 33.97 24.3433 34.51 24.3433 35.17Z" fill="white"/>
<path d="M36.9236 36.37C37.5864 36.37 38.1237 35.8327 38.1237 35.17C38.1237 34.5072 37.5864 33.97 36.9236 33.97C36.2609 33.97 35.7236 34.5072 35.7236 35.17C35.7236 35.8327 36.2609 36.37 36.9236 36.37Z" fill="white"/>
<path d="M50.7034 36.37C51.3662 36.37 51.9034 35.8327 51.9034 35.17C51.9034 34.5072 51.3662 33.97 50.7034 33.97C50.0407 33.97 49.5034 34.5072 49.5034 35.17C49.5034 35.8327 50.0407 36.37 50.7034 36.37Z" fill="white"/>
<path d="M64.4832 36.37C65.146 36.37 65.6832 35.8327 65.6832 35.17C65.6832 34.5072 65.146 33.97 64.4832 33.97C63.8205 33.97 63.2832 34.5072 63.2832 35.17C63.2832 35.8327 63.8205 36.37 64.4832 36.37Z" fill="white"/>
<path d="M78.2733 36.37C78.936 36.37 79.4732 35.8327 79.4732 35.17C79.4732 34.5072 78.936 33.97 78.2733 33.97C77.6105 33.97 77.0732 34.5072 77.0732 35.17C77.0732 35.8327 77.6105 36.37 78.2733 36.37Z" fill="white"/>
<path d="M92.0535 36.37C92.7163 36.37 93.2535 35.8327 93.2535 35.17C93.2535 34.5072 92.7163 33.97 92.0535 33.97C91.3908 33.97 90.8535 34.5072 90.8535 35.17C90.8535 35.8327 91.3908 36.37 92.0535 36.37Z" fill="white"/>
<path d="M105.833 36.37C106.496 36.37 107.033 35.8327 107.033 35.17C107.033 34.5072 106.496 33.97 105.833 33.97C105.171 33.97 104.633 34.5072 104.633 35.17C104.633 35.8327 105.171 36.37 105.833 36.37Z" fill="white"/>
<path d="M120.814 35.17C120.814 35.83 120.274 36.37 119.614 36.37C118.954 36.37 118.414 35.83 118.414 35.17C118.414 34.51 118.954 33.97 119.614 33.97C120.274 33.97 120.814 34.51 120.814 35.17Z" fill="white"/>
<path d="M133.393 36.37C134.056 36.37 134.593 35.8327 134.593 35.17C134.593 34.5072 134.056 33.97 133.393 33.97C132.731 33.97 132.193 34.5072 132.193 35.17C132.193 35.8327 132.731 36.37 133.393 36.37Z" fill="white"/>
<path d="M147.174 36.37C147.836 36.37 148.374 35.8327 148.374 35.17C148.374 34.5072 147.836 33.97 147.174 33.97C146.511 33.97 145.974 34.5072 145.974 35.17C145.974 35.8327 146.511 36.37 147.174 36.37Z" fill="white"/>
<path d="M160.964 36.37C161.626 36.37 162.164 35.8327 162.164 35.17C162.164 34.5072 161.626 33.97 160.964 33.97C160.301 33.97 159.764 34.5072 159.764 35.17C159.764 35.8327 160.301 36.37 160.964 36.37Z" fill="white"/>
<path d="M174.743 36.37C175.406 36.37 175.943 35.8327 175.943 35.17C175.943 34.5072 175.406 33.97 174.743 33.97C174.081 33.97 173.543 34.5072 173.543 35.17C173.543 35.8327 174.081 36.37 174.743 36.37Z" fill="white"/>
<path d="M188.523 36.37C189.186 36.37 189.723 35.8327 189.723 35.17C189.723 34.5072 189.186 33.97 188.523 33.97C187.861 33.97 187.323 34.5072 187.323 35.17C187.323 35.8327 187.861 36.37 188.523 36.37Z" fill="white"/>
<path d="M202.304 36.37C202.966 36.37 203.504 35.8327 203.504 35.17C203.504 34.5072 202.966 33.97 202.304 33.97C201.641 33.97 201.104 34.5072 201.104 35.17C201.104 35.8327 201.641 36.37 202.304 36.37Z" fill="white"/>
<path d="M216.083 36.37C216.746 36.37 217.283 35.8327 217.283 35.17C217.283 34.5072 216.746 33.97 216.083 33.97C215.421 33.97 214.883 34.5072 214.883 35.17C214.883 35.8327 215.421 36.37 216.083 36.37Z" fill="white"/>
<path d="M229.864 36.37C230.526 36.37 231.064 35.8327 231.064 35.17C231.064 34.5072 230.526 33.97 229.864 33.97C229.201 33.97 228.664 34.5072 228.664 35.17C228.664 35.8327 229.201 36.37 229.864 36.37Z" fill="white"/>
<path d="M244.843 35.17C244.843 35.83 244.303 36.37 243.643 36.37C242.983 36.37 242.443 35.83 242.443 35.17C242.443 34.51 242.983 33.97 243.643 33.97C244.313 33.97 244.843 34.51 244.843 35.17Z" fill="white"/>
<path d="M257.433 36.37C258.096 36.37 258.633 35.8327 258.633 35.17C258.633 34.5072 258.096 33.97 257.433 33.97C256.771 33.97 256.233 34.5072 256.233 35.17C256.233 35.8327 256.771 36.37 257.433 36.37Z" fill="white"/>
<path d="M9.36359 49.85C10.0263 49.85 10.5636 49.3127 10.5636 48.6499C10.5636 47.9872 10.0263 47.45 9.36359 47.45C8.70084 47.45 8.16357 47.9872 8.16357 48.6499C8.16357 49.3127 8.70084 49.85 9.36359 49.85Z" fill="white"/>
<path d="M24.3433 48.6499C24.3433 49.3099 23.8034 49.85 23.1434 49.85C22.4834 49.85 21.9434 49.3099 21.9434 48.6499C21.9434 47.9899 22.4834 47.45 23.1434 47.45C23.8034 47.45 24.3433 47.9899 24.3433 48.6499Z" fill="white"/>
<path d="M36.9236 49.85C37.5864 49.85 38.1237 49.3127 38.1237 48.6499C38.1237 47.9872 37.5864 47.45 36.9236 47.45C36.2609 47.45 35.7236 47.9872 35.7236 48.6499C35.7236 49.3127 36.2609 49.85 36.9236 49.85Z" fill="white"/>
<path d="M50.7034 49.85C51.3662 49.85 51.9034 49.3127 51.9034 48.6499C51.9034 47.9872 51.3662 47.45 50.7034 47.45C50.0407 47.45 49.5034 47.9872 49.5034 48.6499C49.5034 49.3127 50.0407 49.85 50.7034 49.85Z" fill="white"/>
<path d="M64.4832 49.85C65.146 49.85 65.6832 49.3127 65.6832 48.6499C65.6832 47.9872 65.146 47.45 64.4832 47.45C63.8205 47.45 63.2832 47.9872 63.2832 48.6499C63.2832 49.3127 63.8205 49.85 64.4832 49.85Z" fill="white"/>
<path d="M78.2733 49.85C78.936 49.85 79.4732 49.3127 79.4732 48.6499C79.4732 47.9872 78.936 47.45 78.2733 47.45C77.6105 47.45 77.0732 47.9872 77.0732 48.6499C77.0732 49.3127 77.6105 49.85 78.2733 49.85Z" fill="white"/>
<path d="M92.0535 49.85C92.7163 49.85 93.2535 49.3127 93.2535 48.6499C93.2535 47.9872 92.7163 47.45 92.0535 47.45C91.3908 47.45 90.8535 47.9872 90.8535 48.6499C90.8535 49.3127 91.3908 49.85 92.0535 49.85Z" fill="white"/>
<path d="M105.833 49.85C106.496 49.85 107.033 49.3127 107.033 48.6499C107.033 47.9872 106.496 47.45 105.833 47.45C105.171 47.45 104.633 47.9872 104.633 48.6499C104.633 49.3127 105.171 49.85 105.833 49.85Z" fill="white"/>
<path d="M120.814 48.6499C120.814 49.3099 120.274 49.85 119.614 49.85C118.954 49.85 118.414 49.3099 118.414 48.6499C118.414 47.9899 118.954 47.45 119.614 47.45C120.274 47.45 120.814 47.9899 120.814 48.6499Z" fill="white"/>
<path d="M133.393 49.85C134.056 49.85 134.593 49.3127 134.593 48.6499C134.593 47.9872 134.056 47.45 133.393 47.45C132.731 47.45 132.193 47.9872 132.193 48.6499C132.193 49.3127 132.731 49.85 133.393 49.85Z" fill="white"/>
<path d="M147.174 49.85C147.836 49.85 148.374 49.3127 148.374 48.6499C148.374 47.9872 147.836 47.45 147.174 47.45C146.511 47.45 145.974 47.9872 145.974 48.6499C145.974 49.3127 146.511 49.85 147.174 49.85Z" fill="white"/>
<path d="M160.964 49.85C161.626 49.85 162.164 49.3127 162.164 48.6499C162.164 47.9872 161.626 47.45 160.964 47.45C160.301 47.45 159.764 47.9872 159.764 48.6499C159.764 49.3127 160.301 49.85 160.964 49.85Z" fill="white"/>
<path d="M174.743 49.85C175.406 49.85 175.943 49.3127 175.943 48.6499C175.943 47.9872 175.406 47.45 174.743 47.45C174.081 47.45 173.543 47.9872 173.543 48.6499C173.543 49.3127 174.081 49.85 174.743 49.85Z" fill="white"/>
<path d="M188.523 49.85C189.186 49.85 189.723 49.3127 189.723 48.6499C189.723 47.9872 189.186 47.45 188.523 47.45C187.861 47.45 187.323 47.9872 187.323 48.6499C187.323 49.3127 187.861 49.85 188.523 49.85Z" fill="white"/>
<path d="M202.304 49.85C202.966 49.85 203.504 49.3127 203.504 48.6499C203.504 47.9872 202.966 47.45 202.304 47.45C201.641 47.45 201.104 47.9872 201.104 48.6499C201.104 49.3127 201.641 49.85 202.304 49.85Z" fill="white"/>
<path d="M216.083 49.85C216.746 49.85 217.283 49.3127 217.283 48.6499C217.283 47.9872 216.746 47.45 216.083 47.45C215.421 47.45 214.883 47.9872 214.883 48.6499C214.883 49.3127 215.421 49.85 216.083 49.85Z" fill="white"/>
<path d="M229.864 49.85C230.526 49.85 231.064 49.3127 231.064 48.6499C231.064 47.9872 230.526 47.45 229.864 47.45C229.201 47.45 228.664 47.9872 228.664 48.6499C228.664 49.3127 229.201 49.85 229.864 49.85Z" fill="white"/>
<path d="M244.843 48.6499C244.843 49.3099 244.303 49.85 243.643 49.85C242.983 49.85 242.443 49.3099 242.443 48.6499C242.443 47.9899 242.983 47.45 243.643 47.45C244.313 47.45 244.843 47.9899 244.843 48.6499Z" fill="white"/>
<path d="M257.433 49.85C258.096 49.85 258.633 49.3127 258.633 48.6499C258.633 47.9872 258.096 47.45 257.433 47.45C256.771 47.45 256.233 47.9872 256.233 48.6499C256.233 49.3127 256.771 49.85 257.433 49.85Z" fill="white"/>
<path d="M9.36359 63.3299C10.0263 63.3299 10.5636 62.7927 10.5636 62.1299C10.5636 61.4672 10.0263 60.9299 9.36359 60.9299C8.70084 60.9299 8.16357 61.4672 8.16357 62.1299C8.16357 62.7927 8.70084 63.3299 9.36359 63.3299Z" fill="white"/>
<path d="M24.3433 62.1299C24.3433 62.7899 23.8034 63.3299 23.1434 63.3299C22.4834 63.3299 21.9434 62.7899 21.9434 62.1299C21.9434 61.4699 22.4834 60.9299 23.1434 60.9299C23.8034 60.9299 24.3433 61.4699 24.3433 62.1299Z" fill="white"/>
<path d="M36.9236 63.3299C37.5864 63.3299 38.1237 62.7927 38.1237 62.1299C38.1237 61.4672 37.5864 60.9299 36.9236 60.9299C36.2609 60.9299 35.7236 61.4672 35.7236 62.1299C35.7236 62.7927 36.2609 63.3299 36.9236 63.3299Z" fill="white"/>
<path d="M50.7034 63.3299C51.3662 63.3299 51.9034 62.7927 51.9034 62.1299C51.9034 61.4672 51.3662 60.9299 50.7034 60.9299C50.0407 60.9299 49.5034 61.4672 49.5034 62.1299C49.5034 62.7927 50.0407 63.3299 50.7034 63.3299Z" fill="white"/>
<path d="M64.4832 63.3299C65.146 63.3299 65.6832 62.7927 65.6832 62.1299C65.6832 61.4672 65.146 60.9299 64.4832 60.9299C63.8205 60.9299 63.2832 61.4672 63.2832 62.1299C63.2832 62.7927 63.8205 63.3299 64.4832 63.3299Z" fill="white"/>
<path d="M78.2733 63.3299C78.936 63.3299 79.4732 62.7927 79.4732 62.1299C79.4732 61.4672 78.936 60.9299 78.2733 60.9299C77.6105 60.9299 77.0732 61.4672 77.0732 62.1299C77.0732 62.7927 77.6105 63.3299 78.2733 63.3299Z" fill="white"/>
<path d="M92.0535 63.3299C92.7163 63.3299 93.2535 62.7927 93.2535 62.1299C93.2535 61.4672 92.7163 60.9299 92.0535 60.9299C91.3908 60.9299 90.8535 61.4672 90.8535 62.1299C90.8535 62.7927 91.3908 63.3299 92.0535 63.3299Z" fill="white"/>
<path d="M105.833 63.3299C106.496 63.3299 107.033 62.7927 107.033 62.1299C107.033 61.4672 106.496 60.9299 105.833 60.9299C105.171 60.9299 104.633 61.4672 104.633 62.1299C104.633 62.7927 105.171 63.3299 105.833 63.3299Z" fill="white"/>
<path d="M120.814 62.1299C120.814 62.7899 120.274 63.3299 119.614 63.3299C118.954 63.3299 118.414 62.7899 118.414 62.1299C118.414 61.4699 118.954 60.9299 119.614 60.9299C120.274 60.9299 120.814 61.4699 120.814 62.1299Z" fill="white"/>
<path d="M133.393 63.3299C134.056 63.3299 134.593 62.7927 134.593 62.1299C134.593 61.4672 134.056 60.9299 133.393 60.9299C132.731 60.9299 132.193 61.4672 132.193 62.1299C132.193 62.7927 132.731 63.3299 133.393 63.3299Z" fill="white"/>
<path d="M147.174 63.3299C147.836 63.3299 148.374 62.7927 148.374 62.1299C148.374 61.4672 147.836 60.9299 147.174 60.9299C146.511 60.9299 145.974 61.4672 145.974 62.1299C145.974 62.7927 146.511 63.3299 147.174 63.3299Z" fill="white"/>
<path d="M160.964 63.3299C161.626 63.3299 162.164 62.7927 162.164 62.1299C162.164 61.4672 161.626 60.9299 160.964 60.9299C160.301 60.9299 159.764 61.4672 159.764 62.1299C159.764 62.7927 160.301 63.3299 160.964 63.3299Z" fill="white"/>
<path d="M174.743 63.3299C175.406 63.3299 175.943 62.7927 175.943 62.1299C175.943 61.4672 175.406 60.9299 174.743 60.9299C174.081 60.9299 173.543 61.4672 173.543 62.1299C173.543 62.7927 174.081 63.3299 174.743 63.3299Z" fill="white"/>
<path d="M188.523 63.3299C189.186 63.3299 189.723 62.7927 189.723 62.1299C189.723 61.4672 189.186 60.9299 188.523 60.9299C187.861 60.9299 187.323 61.4672 187.323 62.1299C187.323 62.7927 187.861 63.3299 188.523 63.3299Z" fill="white"/>
<path d="M202.304 63.3299C202.966 63.3299 203.504 62.7927 203.504 62.1299C203.504 61.4672 202.966 60.9299 202.304 60.9299C201.641 60.9299 201.104 61.4672 201.104 62.1299C201.104 62.7927 201.641 63.3299 202.304 63.3299Z" fill="white"/>
<path d="M216.083 63.3299C216.746 63.3299 217.283 62.7927 217.283 62.1299C217.283 61.4672 216.746 60.9299 216.083 60.9299C215.421 60.9299 214.883 61.4672 214.883 62.1299C214.883 62.7927 215.421 63.3299 216.083 63.3299Z" fill="white"/>
<path d="M229.864 63.3299C230.526 63.3299 231.064 62.7927 231.064 62.1299C231.064 61.4672 230.526 60.9299 229.864 60.9299C229.201 60.9299 228.664 61.4672 228.664 62.1299C228.664 62.7927 229.201 63.3299 229.864 63.3299Z" fill="white"/>
<path d="M244.843 62.1299C244.843 62.7899 244.303 63.3299 243.643 63.3299C242.983 63.3299 242.443 62.7899 242.443 62.1299C242.443 61.4699 242.983 60.9299 243.643 60.9299C244.313 60.9299 244.843 61.4699 244.843 62.1299Z" fill="white"/>
<path d="M257.433 63.3299C258.096 63.3299 258.633 62.7927 258.633 62.1299C258.633 61.4672 258.096 60.9299 257.433 60.9299C256.771 60.9299 256.233 61.4672 256.233 62.1299C256.233 62.7927 256.771 63.3299 257.433 63.3299Z" fill="white"/>
<path d="M9.36359 76.8099C10.0263 76.8099 10.5636 76.2727 10.5636 75.6099C10.5636 74.9472 10.0263 74.4099 9.36359 74.4099C8.70084 74.4099 8.16357 74.9472 8.16357 75.6099C8.16357 76.2727 8.70084 76.8099 9.36359 76.8099Z" fill="white"/>
<path d="M24.3433 75.6099C24.3433 76.2699 23.8034 76.8099 23.1434 76.8099C22.4834 76.8099 21.9434 76.2699 21.9434 75.6099C21.9434 74.9499 22.4834 74.4099 23.1434 74.4099C23.8034 74.4199 24.3433 74.9499 24.3433 75.6099Z" fill="white"/>
<path d="M36.9236 76.8099C37.5864 76.8099 38.1237 76.2727 38.1237 75.6099C38.1237 74.9472 37.5864 74.4099 36.9236 74.4099C36.2609 74.4099 35.7236 74.9472 35.7236 75.6099C35.7236 76.2727 36.2609 76.8099 36.9236 76.8099Z" fill="white"/>
<path d="M50.7034 76.8099C51.3662 76.8099 51.9034 76.2727 51.9034 75.6099C51.9034 74.9472 51.3662 74.4099 50.7034 74.4099C50.0407 74.4099 49.5034 74.9472 49.5034 75.6099C49.5034 76.2727 50.0407 76.8099 50.7034 76.8099Z" fill="white"/>
<path d="M64.4832 76.8099C65.146 76.8099 65.6832 76.2727 65.6832 75.6099C65.6832 74.9472 65.146 74.4099 64.4832 74.4099C63.8205 74.4099 63.2832 74.9472 63.2832 75.6099C63.2832 76.2727 63.8205 76.8099 64.4832 76.8099Z" fill="white"/>
<path d="M78.2733 76.8099C78.936 76.8099 79.4732 76.2727 79.4732 75.6099C79.4732 74.9472 78.936 74.4099 78.2733 74.4099C77.6105 74.4099 77.0732 74.9472 77.0732 75.6099C77.0732 76.2727 77.6105 76.8099 78.2733 76.8099Z" fill="white"/>
<path d="M92.0535 76.8099C92.7163 76.8099 93.2535 76.2727 93.2535 75.6099C93.2535 74.9472 92.7163 74.4099 92.0535 74.4099C91.3908 74.4099 90.8535 74.9472 90.8535 75.6099C90.8535 76.2727 91.3908 76.8099 92.0535 76.8099Z" fill="white"/>
<path d="M105.833 76.8099C106.496 76.8099 107.033 76.2727 107.033 75.6099C107.033 74.9472 106.496 74.4099 105.833 74.4099C105.171 74.4099 104.633 74.9472 104.633 75.6099C104.633 76.2727 105.171 76.8099 105.833 76.8099Z" fill="white"/>
<path d="M120.814 75.6099C120.814 76.2699 120.274 76.8099 119.614 76.8099C118.954 76.8099 118.414 76.2699 118.414 75.6099C118.414 74.9499 118.954 74.4099 119.614 74.4099C120.274 74.4199 120.814 74.9499 120.814 75.6099Z" fill="white"/>
<path d="M133.393 76.8099C134.056 76.8099 134.593 76.2727 134.593 75.6099C134.593 74.9472 134.056 74.4099 133.393 74.4099C132.731 74.4099 132.193 74.9472 132.193 75.6099C132.193 76.2727 132.731 76.8099 133.393 76.8099Z" fill="white"/>
<path d="M147.174 76.8099C147.836 76.8099 148.374 76.2727 148.374 75.6099C148.374 74.9472 147.836 74.4099 147.174 74.4099C146.511 74.4099 145.974 74.9472 145.974 75.6099C145.974 76.2727 146.511 76.8099 147.174 76.8099Z" fill="white"/>
<path d="M160.964 76.8099C161.626 76.8099 162.164 76.2727 162.164 75.6099C162.164 74.9472 161.626 74.4099 160.964 74.4099C160.301 74.4099 159.764 74.9472 159.764 75.6099C159.764 76.2727 160.301 76.8099 160.964 76.8099Z" fill="white"/>
<path d="M174.743 76.8099C175.406 76.8099 175.943 76.2727 175.943 75.6099C175.943 74.9472 175.406 74.4099 174.743 74.4099C174.081 74.4099 173.543 74.9472 173.543 75.6099C173.543 76.2727 174.081 76.8099 174.743 76.8099Z" fill="white"/>
<path d="M188.523 76.8099C189.186 76.8099 189.723 76.2727 189.723 75.6099C189.723 74.9472 189.186 74.4099 188.523 74.4099C187.861 74.4099 187.323 74.9472 187.323 75.6099C187.323 76.2727 187.861 76.8099 188.523 76.8099Z" fill="white"/>
<path d="M202.304 76.8099C202.966 76.8099 203.504 76.2727 203.504 75.6099C203.504 74.9472 202.966 74.4099 202.304 74.4099C201.641 74.4099 201.104 74.9472 201.104 75.6099C201.104 76.2727 201.641 76.8099 202.304 76.8099Z" fill="white"/>
<path d="M216.083 76.8099C216.746 76.8099 217.283 76.2727 217.283 75.6099C217.283 74.9472 216.746 74.4099 216.083 74.4099C215.421 74.4099 214.883 74.9472 214.883 75.6099C214.883 76.2727 215.421 76.8099 216.083 76.8099Z" fill="white"/>
<path d="M229.864 76.8099C230.526 76.8099 231.064 76.2727 231.064 75.6099C231.064 74.9472 230.526 74.4099 229.864 74.4099C229.201 74.4099 228.664 74.9472 228.664 75.6099C228.664 76.2727 229.201 76.8099 229.864 76.8099Z" fill="white"/>
<path d="M244.843 75.6099C244.843 76.2699 244.303 76.8099 243.643 76.8099C242.983 76.8099 242.443 76.2699 242.443 75.6099C242.443 74.9499 242.983 74.4099 243.643 74.4099C244.313 74.4199 244.843 74.9499 244.843 75.6099Z" fill="white"/>
<path d="M257.433 76.8099C258.096 76.8099 258.633 76.2727 258.633 75.6099C258.633 74.9472 258.096 74.4099 257.433 74.4099C256.771 74.4099 256.233 74.9472 256.233 75.6099C256.233 76.2727 256.771 76.8099 257.433 76.8099Z" fill="white"/>
<path d="M9.36359 90.2999C10.0263 90.2999 10.5636 89.7627 10.5636 89.0999C10.5636 88.4372 10.0263 87.8999 9.36359 87.8999C8.70084 87.8999 8.16357 88.4372 8.16357 89.0999C8.16357 89.7627 8.70084 90.2999 9.36359 90.2999Z" fill="white"/>
<path d="M24.3433 89.0999C24.3433 89.7599 23.8034 90.2999 23.1434 90.2999C22.4834 90.2999 21.9434 89.7599 21.9434 89.0999C21.9434 88.4399 22.4834 87.8999 23.1434 87.8999C23.8034 87.8999 24.3433 88.4299 24.3433 89.0999Z" fill="white"/>
<path d="M36.9236 90.2999C37.5864 90.2999 38.1237 89.7627 38.1237 89.0999C38.1237 88.4372 37.5864 87.8999 36.9236 87.8999C36.2609 87.8999 35.7236 88.4372 35.7236 89.0999C35.7236 89.7627 36.2609 90.2999 36.9236 90.2999Z" fill="white"/>
<path d="M50.7034 90.2999C51.3662 90.2999 51.9034 89.7627 51.9034 89.0999C51.9034 88.4372 51.3662 87.8999 50.7034 87.8999C50.0407 87.8999 49.5034 88.4372 49.5034 89.0999C49.5034 89.7627 50.0407 90.2999 50.7034 90.2999Z" fill="white"/>
<path d="M64.4832 90.2999C65.146 90.2999 65.6832 89.7627 65.6832 89.0999C65.6832 88.4372 65.146 87.8999 64.4832 87.8999C63.8205 87.8999 63.2832 88.4372 63.2832 89.0999C63.2832 89.7627 63.8205 90.2999 64.4832 90.2999Z" fill="white"/>
<path d="M78.2733 90.2999C78.936 90.2999 79.4732 89.7627 79.4732 89.0999C79.4732 88.4372 78.936 87.8999 78.2733 87.8999C77.6105 87.8999 77.0732 88.4372 77.0732 89.0999C77.0732 89.7627 77.6105 90.2999 78.2733 90.2999Z" fill="white"/>
<path d="M92.0535 90.2999C92.7163 90.2999 93.2535 89.7627 93.2535 89.0999C93.2535 88.4372 92.7163 87.8999 92.0535 87.8999C91.3908 87.8999 90.8535 88.4372 90.8535 89.0999C90.8535 89.7627 91.3908 90.2999 92.0535 90.2999Z" fill="white"/>
<path d="M107.043 89.2779C107.144 88.6229 106.695 88.01 106.04 87.9089C105.385 87.8078 104.772 88.2567 104.671 88.9117C104.57 89.5667 105.019 90.1796 105.674 90.2808C106.329 90.3819 106.942 89.9329 107.043 89.2779Z" fill="white"/>
<path d="M120.814 89.0999C120.814 89.7599 120.274 90.2999 119.614 90.2999C118.954 90.2999 118.414 89.7599 118.414 89.0999C118.414 88.4399 118.954 87.8999 119.614 87.8999C120.274 87.8999 120.814 88.4299 120.814 89.0999Z" fill="white"/>
<path d="M133.393 90.2999C134.056 90.2999 134.593 89.7627 134.593 89.0999C134.593 88.4372 134.056 87.8999 133.393 87.8999C132.731 87.8999 132.193 88.4372 132.193 89.0999C132.193 89.7627 132.731 90.2999 133.393 90.2999Z" fill="white"/>
<path d="M147.174 90.2999C147.836 90.2999 148.374 89.7627 148.374 89.0999C148.374 88.4372 147.836 87.8999 147.174 87.8999C146.511 87.8999 145.974 88.4372 145.974 89.0999C145.974 89.7627 146.511 90.2999 147.174 90.2999Z" fill="white"/>
<path d="M160.964 90.2999C161.626 90.2999 162.164 89.7627 162.164 89.0999C162.164 88.4372 161.626 87.8999 160.964 87.8999C160.301 87.8999 159.764 88.4372 159.764 89.0999C159.764 89.7627 160.301 90.2999 160.964 90.2999Z" fill="white"/>
<path d="M174.743 90.2999C175.406 90.2999 175.943 89.7627 175.943 89.0999C175.943 88.4372 175.406 87.8999 174.743 87.8999C174.081 87.8999 173.543 88.4372 173.543 89.0999C173.543 89.7627 174.081 90.2999 174.743 90.2999Z" fill="white"/>
<path d="M188.523 90.2999C189.186 90.2999 189.723 89.7627 189.723 89.0999C189.723 88.4372 189.186 87.8999 188.523 87.8999C187.861 87.8999 187.323 88.4372 187.323 89.0999C187.323 89.7627 187.861 90.2999 188.523 90.2999Z" fill="white"/>
<path d="M203.499 89.2535C203.582 88.596 203.117 87.9956 202.459 87.9125C201.802 87.8294 201.201 88.295 201.118 88.9525C201.035 89.61 201.501 90.2104 202.158 90.2935C202.816 90.3767 203.416 89.911 203.499 89.2535Z" fill="white"/>
<path d="M216.083 90.2999C216.746 90.2999 217.283 89.7627 217.283 89.0999C217.283 88.4372 216.746 87.8999 216.083 87.8999C215.421 87.8999 214.883 88.4372 214.883 89.0999C214.883 89.7627 215.421 90.2999 216.083 90.2999Z" fill="white"/>
<path d="M229.864 90.2999C230.526 90.2999 231.064 89.7627 231.064 89.0999C231.064 88.4372 230.526 87.8999 229.864 87.8999C229.201 87.8999 228.664 88.4372 228.664 89.0999C228.664 89.7627 229.201 90.2999 229.864 90.2999Z" fill="white"/>
<path d="M244.843 89.0999C244.843 89.7599 244.303 90.2999 243.643 90.2999C242.983 90.2999 242.443 89.7599 242.443 89.0999C242.443 88.4399 242.983 87.8999 243.643 87.8999C244.313 87.8999 244.843 88.4299 244.843 89.0999Z" fill="white"/>
<path d="M257.433 90.2999C258.096 90.2999 258.633 89.7627 258.633 89.0999C258.633 88.4372 258.096 87.8999 257.433 87.8999C256.771 87.8999 256.233 88.4372 256.233 89.0999C256.233 89.7627 256.771 90.2999 257.433 90.2999Z" fill="white"/>
<path d="M10.5618 102.767C10.6683 102.113 10.2244 101.496 9.57032 101.39C8.91619 101.283 8.29953 101.727 8.19296 102.381C8.08639 103.035 8.53027 103.652 9.1844 103.759C9.83852 103.865 10.4552 103.421 10.5618 102.767Z" fill="white"/>
<path d="M24.3433 102.58C24.3433 103.24 23.8034 103.78 23.1434 103.78C22.4834 103.78 21.9434 103.24 21.9434 102.58C21.9434 101.92 22.4834 101.38 23.1434 101.38C23.8034 101.38 24.3433 101.92 24.3433 102.58Z" fill="white"/>
<path d="M38.1036 102.706C38.1808 102.048 37.7098 101.452 37.0515 101.375C36.3933 101.298 35.7971 101.769 35.7199 102.427C35.6427 103.085 36.1137 103.681 36.7719 103.758C37.4302 103.836 38.0263 103.365 38.1036 102.706Z" fill="white"/>
<path d="M51.9065 102.771C52.0131 102.117 51.5692 101.5 50.915 101.394C50.2609 101.287 49.6443 101.731 49.5377 102.385C49.4311 103.039 49.875 103.656 50.5291 103.763C51.1832 103.869 51.7999 103.425 51.9065 102.771Z" fill="white"/>
<path d="M65.6877 102.773C65.7943 102.118 65.3504 101.502 64.6963 101.395C64.0422 101.289 63.4255 101.733 63.3189 102.387C63.2124 103.041 63.6562 103.657 64.3104 103.764C64.9645 103.871 65.5812 103.427 65.6877 102.773Z" fill="white"/>
<path d="M79.4709 102.764C79.5775 102.11 79.1336 101.494 78.4795 101.387C77.8254 101.28 77.2087 101.724 77.1021 102.378C76.9956 103.032 77.4395 103.649 78.0936 103.756C78.7477 103.862 79.3644 103.418 79.4709 102.764Z" fill="white"/>
<path d="M93.2527 102.765C93.3592 102.111 92.9154 101.495 92.2612 101.388C91.6071 101.282 90.9904 101.725 90.8839 102.38C90.7773 103.034 91.2212 103.65 91.8753 103.757C92.5294 103.863 93.1461 103.42 93.2527 102.765Z" fill="white"/>
<path d="M105.833 103.78C106.496 103.78 107.033 103.243 107.033 102.58C107.033 101.917 106.496 101.38 105.833 101.38C105.171 101.38 104.633 101.917 104.633 102.58C104.633 103.243 105.171 103.78 105.833 103.78Z" fill="white"/>
<path d="M120.814 102.58C120.814 103.24 120.274 103.78 119.614 103.78C118.954 103.78 118.414 103.24 118.414 102.58C118.414 101.92 118.954 101.38 119.614 101.38C120.274 101.38 120.814 101.92 120.814 102.58Z" fill="white"/>
<path d="M134.597 102.77C134.704 102.115 134.26 101.499 133.606 101.392C132.952 101.286 132.335 101.73 132.229 102.384C132.122 103.038 132.566 103.655 133.22 103.761C133.874 103.868 134.491 103.424 134.597 102.77Z" fill="white"/>
<path d="M148.379 102.771C148.485 102.117 148.041 101.5 147.387 101.394C146.733 101.287 146.116 101.731 146.01 102.385C145.903 103.039 146.347 103.656 147.001 103.763C147.655 103.869 148.272 103.425 148.379 102.771Z" fill="white"/>
<path d="M162.162 102.763C162.268 102.108 161.825 101.492 161.17 101.385C160.516 101.279 159.9 101.722 159.793 102.377C159.686 103.031 160.13 103.647 160.784 103.754C161.439 103.861 162.055 103.417 162.162 102.763Z" fill="white"/>
<path d="M175.944 102.764C176.05 102.11 175.606 101.493 174.952 101.387C174.298 101.28 173.681 101.724 173.575 102.378C173.468 103.032 173.912 103.649 174.566 103.755C175.22 103.862 175.837 103.418 175.944 102.764Z" fill="white"/>
<path d="M189.725 102.765C189.831 102.111 189.388 101.495 188.733 101.388C188.079 101.282 187.463 101.725 187.356 102.38C187.249 103.034 187.693 103.65 188.347 103.757C189.002 103.863 189.618 103.42 189.725 102.765Z" fill="white"/>
<path d="M202.304 103.78C202.966 103.78 203.504 103.243 203.504 102.58C203.504 101.917 202.966 101.38 202.304 101.38C201.641 101.38 201.104 101.917 201.104 102.58C201.104 103.243 201.641 103.78 202.304 103.78Z" fill="white"/>
<path d="M217.288 102.768C217.395 102.114 216.951 101.497 216.297 101.391C215.643 101.284 215.026 101.728 214.92 102.382C214.813 103.036 215.257 103.653 215.911 103.76C216.565 103.866 217.182 103.422 217.288 102.768Z" fill="white"/>
<path d="M231.07 102.77C231.176 102.115 230.732 101.499 230.078 101.392C229.424 101.286 228.807 101.73 228.701 102.384C228.594 103.038 229.038 103.655 229.692 103.761C230.346 103.868 230.963 103.424 231.07 102.77Z" fill="white"/>
<path d="M244.843 102.58C244.843 103.24 244.303 103.78 243.643 103.78C242.983 103.78 242.443 103.24 242.443 102.58C242.443 101.92 242.983 101.38 243.643 101.38C244.313 101.38 244.843 101.92 244.843 102.58Z" fill="white"/>
<path d="M258.661 102.749C258.729 102.09 258.25 101.5 257.591 101.431C256.932 101.363 256.342 101.842 256.273 102.501C256.205 103.16 256.684 103.75 257.343 103.818C258.002 103.887 258.592 103.408 258.661 102.749Z" fill="white"/>
<path d="M9.36359 117.26C10.0263 117.26 10.5636 116.723 10.5636 116.06C10.5636 115.397 10.0263 114.86 9.36359 114.86C8.70084 114.86 8.16357 115.397 8.16357 116.06C8.16357 116.723 8.70084 117.26 9.36359 117.26Z" fill="white"/>
<path d="M24.3433 116.06C24.3433 116.72 23.8034 117.26 23.1434 117.26C22.4834 117.26 21.9434 116.72 21.9434 116.06C21.9434 115.4 22.4834 114.86 23.1434 114.86C23.8034 114.86 24.3433 115.4 24.3433 116.06Z" fill="white"/>
<path d="M36.9236 117.26C37.5864 117.26 38.1237 116.723 38.1237 116.06C38.1237 115.397 37.5864 114.86 36.9236 114.86C36.2609 114.86 35.7236 115.397 35.7236 116.06C35.7236 116.723 36.2609 117.26 36.9236 117.26Z" fill="white"/>
<path d="M50.7034 117.26C51.3662 117.26 51.9034 116.723 51.9034 116.06C51.9034 115.397 51.3662 114.86 50.7034 114.86C50.0407 114.86 49.5034 115.397 49.5034 116.06C49.5034 116.723 50.0407 117.26 50.7034 117.26Z" fill="white"/>
<path d="M64.4832 117.26C65.146 117.26 65.6832 116.723 65.6832 116.06C65.6832 115.397 65.146 114.86 64.4832 114.86C63.8205 114.86 63.2832 115.397 63.2832 116.06C63.2832 116.723 63.8205 117.26 64.4832 117.26Z" fill="white"/>
<path d="M78.2733 117.26C78.936 117.26 79.4732 116.723 79.4732 116.06C79.4732 115.397 78.936 114.86 78.2733 114.86C77.6105 114.86 77.0732 115.397 77.0732 116.06C77.0732 116.723 77.6105 117.26 78.2733 117.26Z" fill="white"/>
<path d="M92.0535 117.26C92.7163 117.26 93.2535 116.723 93.2535 116.06C93.2535 115.397 92.7163 114.86 92.0535 114.86C91.3908 114.86 90.8535 115.397 90.8535 116.06C90.8535 116.723 91.3908 117.26 92.0535 117.26Z" fill="white"/>
<path d="M105.833 117.26C106.496 117.26 107.033 116.723 107.033 116.06C107.033 115.397 106.496 114.86 105.833 114.86C105.171 114.86 104.633 115.397 104.633 116.06C104.633 116.723 105.171 117.26 105.833 117.26Z" fill="white"/>
<path d="M120.814 116.06C120.814 116.72 120.274 117.26 119.614 117.26C118.954 117.26 118.414 116.72 118.414 116.06C118.414 115.4 118.954 114.86 119.614 114.86C120.274 114.86 120.814 115.4 120.814 116.06Z" fill="white"/>
<path d="M133.393 117.26C134.056 117.26 134.593 116.723 134.593 116.06C134.593 115.397 134.056 114.86 133.393 114.86C132.731 114.86 132.193 115.397 132.193 116.06C132.193 116.723 132.731 117.26 133.393 117.26Z" fill="white"/>
<path d="M147.174 117.26C147.836 117.26 148.374 116.723 148.374 116.06C148.374 115.397 147.836 114.86 147.174 114.86C146.511 114.86 145.974 115.397 145.974 116.06C145.974 116.723 146.511 117.26 147.174 117.26Z" fill="white"/>
<path d="M160.964 117.26C161.626 117.26 162.164 116.723 162.164 116.06C162.164 115.397 161.626 114.86 160.964 114.86C160.301 114.86 159.764 115.397 159.764 116.06C159.764 116.723 160.301 117.26 160.964 117.26Z" fill="white"/>
<path d="M174.743 117.26C175.406 117.26 175.943 116.723 175.943 116.06C175.943 115.397 175.406 114.86 174.743 114.86C174.081 114.86 173.543 115.397 173.543 116.06C173.543 116.723 174.081 117.26 174.743 117.26Z" fill="white"/>
<path d="M188.523 117.26C189.186 117.26 189.723 116.723 189.723 116.06C189.723 115.397 189.186 114.86 188.523 114.86C187.861 114.86 187.323 115.397 187.323 116.06C187.323 116.723 187.861 117.26 188.523 117.26Z" fill="white"/>
<path d="M202.304 117.26C202.966 117.26 203.504 116.723 203.504 116.06C203.504 115.397 202.966 114.86 202.304 114.86C201.641 114.86 201.104 115.397 201.104 116.06C201.104 116.723 201.641 117.26 202.304 117.26Z" fill="white"/>
<path d="M216.083 117.26C216.746 117.26 217.283 116.723 217.283 116.06C217.283 115.397 216.746 114.86 216.083 114.86C215.421 114.86 214.883 115.397 214.883 116.06C214.883 116.723 215.421 117.26 216.083 117.26Z" fill="white"/>
<path d="M229.864 117.26C230.526 117.26 231.064 116.723 231.064 116.06C231.064 115.397 230.526 114.86 229.864 114.86C229.201 114.86 228.664 115.397 228.664 116.06C228.664 116.723 229.201 117.26 229.864 117.26Z" fill="white"/>
<path d="M244.843 116.06C244.843 116.72 244.303 117.26 243.643 117.26C242.983 117.26 242.443 116.72 242.443 116.06C242.443 115.4 242.983 114.86 243.643 114.86C244.313 114.86 244.843 115.4 244.843 116.06Z" fill="white"/>
<path d="M257.433 117.26C258.096 117.26 258.633 116.723 258.633 116.06C258.633 115.397 258.096 114.86 257.433 114.86C256.771 114.86 256.233 115.397 256.233 116.06C256.233 116.723 256.771 117.26 257.433 117.26Z" fill="white"/>
<path d="M9.36359 130.74C10.0263 130.74 10.5636 130.203 10.5636 129.54C10.5636 128.877 10.0263 128.34 9.36359 128.34C8.70084 128.34 8.16357 128.877 8.16357 129.54C8.16357 130.203 8.70084 130.74 9.36359 130.74Z" fill="white"/>
<path d="M24.3433 129.54C24.3433 130.2 23.8034 130.74 23.1434 130.74C22.4834 130.74 21.9434 130.2 21.9434 129.54C21.9434 128.88 22.4834 128.34 23.1434 128.34C23.8034 128.34 24.3433 128.88 24.3433 129.54Z" fill="white"/>
<path d="M36.9236 130.74C37.5864 130.74 38.1237 130.203 38.1237 129.54C38.1237 128.877 37.5864 128.34 36.9236 128.34C36.2609 128.34 35.7236 128.877 35.7236 129.54C35.7236 130.203 36.2609 130.74 36.9236 130.74Z" fill="white"/>
<path d="M50.7034 130.74C51.3662 130.74 51.9034 130.203 51.9034 129.54C51.9034 128.877 51.3662 128.34 50.7034 128.34C50.0407 128.34 49.5034 128.877 49.5034 129.54C49.5034 130.203 50.0407 130.74 50.7034 130.74Z" fill="white"/>
<path d="M64.4832 130.74C65.146 130.74 65.6832 130.203 65.6832 129.54C65.6832 128.877 65.146 128.34 64.4832 128.34C63.8205 128.34 63.2832 128.877 63.2832 129.54C63.2832 130.203 63.8205 130.74 64.4832 130.74Z" fill="white"/>
<path d="M78.2733 130.74C78.936 130.74 79.4732 130.203 79.4732 129.54C79.4732 128.877 78.936 128.34 78.2733 128.34C77.6105 128.34 77.0732 128.877 77.0732 129.54C77.0732 130.203 77.6105 130.74 78.2733 130.74Z" fill="white"/>
<path d="M92.0535 130.74C92.7163 130.74 93.2535 130.203 93.2535 129.54C93.2535 128.877 92.7163 128.34 92.0535 128.34C91.3908 128.34 90.8535 128.877 90.8535 129.54C90.8535 130.203 91.3908 130.74 92.0535 130.74Z" fill="white"/>
<path d="M105.833 130.74C106.496 130.74 107.033 130.203 107.033 129.54C107.033 128.877 106.496 128.34 105.833 128.34C105.171 128.34 104.633 128.877 104.633 129.54C104.633 130.203 105.171 130.74 105.833 130.74Z" fill="white"/>
<path d="M120.814 129.54C120.814 130.2 120.274 130.74 119.614 130.74C118.954 130.74 118.414 130.2 118.414 129.54C118.414 128.88 118.954 128.34 119.614 128.34C120.274 128.34 120.814 128.88 120.814 129.54Z" fill="white"/>
<path d="M133.393 130.74C134.056 130.74 134.593 130.203 134.593 129.54C134.593 128.877 134.056 128.34 133.393 128.34C132.731 128.34 132.193 128.877 132.193 129.54C132.193 130.203 132.731 130.74 133.393 130.74Z" fill="white"/>
<path d="M147.174 130.74C147.836 130.74 148.374 130.203 148.374 129.54C148.374 128.877 147.836 128.34 147.174 128.34C146.511 128.34 145.974 128.877 145.974 129.54C145.974 130.203 146.511 130.74 147.174 130.74Z" fill="white"/>
<path d="M160.964 130.74C161.626 130.74 162.164 130.203 162.164 129.54C162.164 128.877 161.626 128.34 160.964 128.34C160.301 128.34 159.764 128.877 159.764 129.54C159.764 130.203 160.301 130.74 160.964 130.74Z" fill="white"/>
<path d="M174.743 130.74C175.406 130.74 175.943 130.203 175.943 129.54C175.943 128.877 175.406 128.34 174.743 128.34C174.081 128.34 173.543 128.877 173.543 129.54C173.543 130.203 174.081 130.74 174.743 130.74Z" fill="white"/>
<path d="M188.523 130.74C189.186 130.74 189.723 130.203 189.723 129.54C189.723 128.877 189.186 128.34 188.523 128.34C187.861 128.34 187.323 128.877 187.323 129.54C187.323 130.203 187.861 130.74 188.523 130.74Z" fill="white"/>
<path d="M202.304 130.74C202.966 130.74 203.504 130.203 203.504 129.54C203.504 128.877 202.966 128.34 202.304 128.34C201.641 128.34 201.104 128.877 201.104 129.54C201.104 130.203 201.641 130.74 202.304 130.74Z" fill="white"/>
<path d="M216.083 130.74C216.746 130.74 217.283 130.203 217.283 129.54C217.283 128.877 216.746 128.34 216.083 128.34C215.421 128.34 214.883 128.877 214.883 129.54C214.883 130.203 215.421 130.74 216.083 130.74Z" fill="white"/>
<path d="M229.864 130.74C230.526 130.74 231.064 130.203 231.064 129.54C231.064 128.877 230.526 128.34 229.864 128.34C229.201 128.34 228.664 128.877 228.664 129.54C228.664 130.203 229.201 130.74 229.864 130.74Z" fill="white"/>
<path d="M244.843 129.54C244.843 130.2 244.303 130.74 243.643 130.74C242.983 130.74 242.443 130.2 242.443 129.54C242.443 128.88 242.983 128.34 243.643 128.34C244.313 128.34 244.843 128.88 244.843 129.54Z" fill="white"/>
<path d="M257.433 130.74C258.096 130.74 258.633 130.203 258.633 129.54C258.633 128.877 258.096 128.34 257.433 128.34C256.771 128.34 256.233 128.877 256.233 129.54C256.233 130.203 256.771 130.74 257.433 130.74Z" fill="white"/>
<path d="M9.36359 144.22C10.0263 144.22 10.5636 143.683 10.5636 143.02C10.5636 142.357 10.0263 141.82 9.36359 141.82C8.70084 141.82 8.16357 142.357 8.16357 143.02C8.16357 143.683 8.70084 144.22 9.36359 144.22Z" fill="white"/>
<path d="M24.3433 143.02C24.3433 143.68 23.8034 144.22 23.1434 144.22C22.4834 144.22 21.9434 143.68 21.9434 143.02C21.9434 142.36 22.4834 141.82 23.1434 141.82C23.8034 141.83 24.3433 142.36 24.3433 143.02Z" fill="white"/>
<path d="M36.9236 144.22C37.5864 144.22 38.1237 143.683 38.1237 143.02C38.1237 142.357 37.5864 141.82 36.9236 141.82C36.2609 141.82 35.7236 142.357 35.7236 143.02C35.7236 143.683 36.2609 144.22 36.9236 144.22Z" fill="white"/>
<path d="M50.7034 144.22C51.3662 144.22 51.9034 143.683 51.9034 143.02C51.9034 142.357 51.3662 141.82 50.7034 141.82C50.0407 141.82 49.5034 142.357 49.5034 143.02C49.5034 143.683 50.0407 144.22 50.7034 144.22Z" fill="white"/>
<path d="M64.4832 144.22C65.146 144.22 65.6832 143.683 65.6832 143.02C65.6832 142.357 65.146 141.82 64.4832 141.82C63.8205 141.82 63.2832 142.357 63.2832 143.02C63.2832 143.683 63.8205 144.22 64.4832 144.22Z" fill="white"/>
<path d="M78.2733 144.22C78.936 144.22 79.4732 143.683 79.4732 143.02C79.4732 142.357 78.936 141.82 78.2733 141.82C77.6105 141.82 77.0732 142.357 77.0732 143.02C77.0732 143.683 77.6105 144.22 78.2733 144.22Z" fill="white"/>
<path d="M92.0535 144.22C92.7163 144.22 93.2535 143.683 93.2535 143.02C93.2535 142.357 92.7163 141.82 92.0535 141.82C91.3908 141.82 90.8535 142.357 90.8535 143.02C90.8535 143.683 91.3908 144.22 92.0535 144.22Z" fill="white"/>
<path d="M105.833 144.22C106.496 144.22 107.033 143.683 107.033 143.02C107.033 142.357 106.496 141.82 105.833 141.82C105.171 141.82 104.633 142.357 104.633 143.02C104.633 143.683 105.171 144.22 105.833 144.22Z" fill="white"/>
<path d="M120.814 143.02C120.814 143.68 120.274 144.22 119.614 144.22C118.954 144.22 118.414 143.68 118.414 143.02C118.414 142.36 118.954 141.82 119.614 141.82C120.274 141.83 120.814 142.36 120.814 143.02Z" fill="white"/>
<path d="M133.393 144.22C134.056 144.22 134.593 143.683 134.593 143.02C134.593 142.357 134.056 141.82 133.393 141.82C132.731 141.82 132.193 142.357 132.193 143.02C132.193 143.683 132.731 144.22 133.393 144.22Z" fill="white"/>
<path d="M147.174 144.22C147.836 144.22 148.374 143.683 148.374 143.02C148.374 142.357 147.836 141.82 147.174 141.82C146.511 141.82 145.974 142.357 145.974 143.02C145.974 143.683 146.511 144.22 147.174 144.22Z" fill="white"/>
<path d="M160.964 144.22C161.626 144.22 162.164 143.683 162.164 143.02C162.164 142.357 161.626 141.82 160.964 141.82C160.301 141.82 159.764 142.357 159.764 143.02C159.764 143.683 160.301 144.22 160.964 144.22Z" fill="white"/>
<path d="M174.743 144.22C175.406 144.22 175.943 143.683 175.943 143.02C175.943 142.357 175.406 141.82 174.743 141.82C174.081 141.82 173.543 142.357 173.543 143.02C173.543 143.683 174.081 144.22 174.743 144.22Z" fill="white"/>
<path d="M188.523 144.22C189.186 144.22 189.723 143.683 189.723 143.02C189.723 142.357 189.186 141.82 188.523 141.82C187.861 141.82 187.323 142.357 187.323 143.02C187.323 143.683 187.861 144.22 188.523 144.22Z" fill="white"/>
<path d="M202.304 144.22C202.966 144.22 203.504 143.683 203.504 143.02C203.504 142.357 202.966 141.82 202.304 141.82C201.641 141.82 201.104 142.357 201.104 143.02C201.104 143.683 201.641 144.22 202.304 144.22Z" fill="white"/>
<path d="M216.083 144.22C216.746 144.22 217.283 143.683 217.283 143.02C217.283 142.357 216.746 141.82 216.083 141.82C215.421 141.82 214.883 142.357 214.883 143.02C214.883 143.683 215.421 144.22 216.083 144.22Z" fill="white"/>
<path d="M229.864 144.22C230.526 144.22 231.064 143.683 231.064 143.02C231.064 142.357 230.526 141.82 229.864 141.82C229.201 141.82 228.664 142.357 228.664 143.02C228.664 143.683 229.201 144.22 229.864 144.22Z" fill="white"/>
<path d="M244.843 143.02C244.843 143.68 244.303 144.22 243.643 144.22C242.983 144.22 242.443 143.68 242.443 143.02C242.443 142.36 242.983 141.82 243.643 141.82C244.313 141.83 244.843 142.36 244.843 143.02Z" fill="white"/>
<path d="M257.433 144.22C258.096 144.22 258.633 143.683 258.633 143.02C258.633 142.357 258.096 141.82 257.433 141.82C256.771 141.82 256.233 142.357 256.233 143.02C256.233 143.683 256.771 144.22 257.433 144.22Z" fill="white"/>
<path d="M9.36359 157.71C10.0263 157.71 10.5636 157.173 10.5636 156.51C10.5636 155.847 10.0263 155.31 9.36359 155.31C8.70084 155.31 8.16357 155.847 8.16357 156.51C8.16357 157.173 8.70084 157.71 9.36359 157.71Z" fill="white"/>
<path d="M24.3433 156.51C24.3433 157.17 23.8034 157.71 23.1434 157.71C22.4834 157.71 21.9434 157.17 21.9434 156.51C21.9434 155.85 22.4834 155.31 23.1434 155.31C23.8034 155.31 24.3433 155.84 24.3433 156.51Z" fill="white"/>
<path d="M36.9236 157.71C37.5864 157.71 38.1237 157.173 38.1237 156.51C38.1237 155.847 37.5864 155.31 36.9236 155.31C36.2609 155.31 35.7236 155.847 35.7236 156.51C35.7236 157.173 36.2609 157.71 36.9236 157.71Z" fill="white"/>
<path d="M50.7034 157.71C51.3662 157.71 51.9034 157.173 51.9034 156.51C51.9034 155.847 51.3662 155.31 50.7034 155.31C50.0407 155.31 49.5034 155.847 49.5034 156.51C49.5034 157.173 50.0407 157.71 50.7034 157.71Z" fill="white"/>
<path d="M64.4832 157.71C65.146 157.71 65.6832 157.173 65.6832 156.51C65.6832 155.847 65.146 155.31 64.4832 155.31C63.8205 155.31 63.2832 155.847 63.2832 156.51C63.2832 157.173 63.8205 157.71 64.4832 157.71Z" fill="white"/>
<path d="M78.2733 157.71C78.936 157.71 79.4732 157.173 79.4732 156.51C79.4732 155.847 78.936 155.31 78.2733 155.31C77.6105 155.31 77.0732 155.847 77.0732 156.51C77.0732 157.173 77.6105 157.71 78.2733 157.71Z" fill="white"/>
<path d="M92.0535 157.71C92.7163 157.71 93.2535 157.173 93.2535 156.51C93.2535 155.847 92.7163 155.31 92.0535 155.31C91.3908 155.31 90.8535 155.847 90.8535 156.51C90.8535 157.173 91.3908 157.71 92.0535 157.71Z" fill="white"/>
<path d="M105.833 157.71C106.496 157.71 107.033 157.173 107.033 156.51C107.033 155.847 106.496 155.31 105.833 155.31C105.171 155.31 104.633 155.847 104.633 156.51C104.633 157.173 105.171 157.71 105.833 157.71Z" fill="white"/>
<path d="M120.814 156.51C120.814 157.17 120.274 157.71 119.614 157.71C118.954 157.71 118.414 157.17 118.414 156.51C118.414 155.85 118.954 155.31 119.614 155.31C120.274 155.31 120.814 155.84 120.814 156.51Z" fill="white"/>
<path d="M133.393 157.71C134.056 157.71 134.593 157.173 134.593 156.51C134.593 155.847 134.056 155.31 133.393 155.31C132.731 155.31 132.193 155.847 132.193 156.51C132.193 157.173 132.731 157.71 133.393 157.71Z" fill="white"/>
<path d="M147.174 157.71C147.836 157.71 148.374 157.173 148.374 156.51C148.374 155.847 147.836 155.31 147.174 155.31C146.511 155.31 145.974 155.847 145.974 156.51C145.974 157.173 146.511 157.71 147.174 157.71Z" fill="white"/>
<path d="M160.964 157.71C161.626 157.71 162.164 157.173 162.164 156.51C162.164 155.847 161.626 155.31 160.964 155.31C160.301 155.31 159.764 155.847 159.764 156.51C159.764 157.173 160.301 157.71 160.964 157.71Z" fill="white"/>
<path d="M174.743 157.71C175.406 157.71 175.943 157.173 175.943 156.51C175.943 155.847 175.406 155.31 174.743 155.31C174.081 155.31 173.543 155.847 173.543 156.51C173.543 157.173 174.081 157.71 174.743 157.71Z" fill="white"/>
<path d="M188.523 157.71C189.186 157.71 189.723 157.173 189.723 156.51C189.723 155.847 189.186 155.31 188.523 155.31C187.861 155.31 187.323 155.847 187.323 156.51C187.323 157.173 187.861 157.71 188.523 157.71Z" fill="white"/>
<path d="M202.304 157.71C202.966 157.71 203.504 157.173 203.504 156.51C203.504 155.847 202.966 155.31 202.304 155.31C201.641 155.31 201.104 155.847 201.104 156.51C201.104 157.173 201.641 157.71 202.304 157.71Z" fill="white"/>
<path d="M216.083 157.71C216.746 157.71 217.283 157.173 217.283 156.51C217.283 155.847 216.746 155.31 216.083 155.31C215.421 155.31 214.883 155.847 214.883 156.51C214.883 157.173 215.421 157.71 216.083 157.71Z" fill="white"/>
<path d="M229.864 157.71C230.526 157.71 231.064 157.173 231.064 156.51C231.064 155.847 230.526 155.31 229.864 155.31C229.201 155.31 228.664 155.847 228.664 156.51C228.664 157.173 229.201 157.71 229.864 157.71Z" fill="white"/>
<path d="M244.843 156.51C244.843 157.17 244.303 157.71 243.643 157.71C242.983 157.71 242.443 157.17 242.443 156.51C242.443 155.85 242.983 155.31 243.643 155.31C244.313 155.31 244.843 155.84 244.843 156.51Z" fill="white"/>
<path d="M257.433 157.71C258.096 157.71 258.633 157.173 258.633 156.51C258.633 155.847 258.096 155.31 257.433 155.31C256.771 155.31 256.233 155.847 256.233 156.51C256.233 157.173 256.771 157.71 257.433 157.71Z" fill="white"/>
<path d="M9.36359 171.19C10.0263 171.19 10.5636 170.653 10.5636 169.99C10.5636 169.327 10.0263 168.79 9.36359 168.79C8.70084 168.79 8.16357 169.327 8.16357 169.99C8.16357 170.653 8.70084 171.19 9.36359 171.19Z" fill="white"/>
<path d="M24.3433 169.99C24.3433 170.65 23.8034 171.19 23.1434 171.19C22.4834 171.19 21.9434 170.65 21.9434 169.99C21.9434 169.33 22.4834 168.79 23.1434 168.79C23.8034 168.79 24.3433 169.33 24.3433 169.99Z" fill="white"/>
<path d="M36.9236 171.19C37.5864 171.19 38.1237 170.653 38.1237 169.99C38.1237 169.327 37.5864 168.79 36.9236 168.79C36.2609 168.79 35.7236 169.327 35.7236 169.99C35.7236 170.653 36.2609 171.19 36.9236 171.19Z" fill="white"/>
<path d="M50.7034 171.19C51.3662 171.19 51.9034 170.653 51.9034 169.99C51.9034 169.327 51.3662 168.79 50.7034 168.79C50.0407 168.79 49.5034 169.327 49.5034 169.99C49.5034 170.653 50.0407 171.19 50.7034 171.19Z" fill="white"/>
<path d="M64.4832 171.19C65.146 171.19 65.6832 170.653 65.6832 169.99C65.6832 169.327 65.146 168.79 64.4832 168.79C63.8205 168.79 63.2832 169.327 63.2832 169.99C63.2832 170.653 63.8205 171.19 64.4832 171.19Z" fill="white"/>
<path d="M78.2733 171.19C78.936 171.19 79.4732 170.653 79.4732 169.99C79.4732 169.327 78.936 168.79 78.2733 168.79C77.6105 168.79 77.0732 169.327 77.0732 169.99C77.0732 170.653 77.6105 171.19 78.2733 171.19Z" fill="white"/>
<path d="M92.0535 171.19C92.7163 171.19 93.2535 170.653 93.2535 169.99C93.2535 169.327 92.7163 168.79 92.0535 168.79C91.3908 168.79 90.8535 169.327 90.8535 169.99C90.8535 170.653 91.3908 171.19 92.0535 171.19Z" fill="white"/>
<path d="M105.833 171.19C106.496 171.19 107.033 170.653 107.033 169.99C107.033 169.327 106.496 168.79 105.833 168.79C105.171 168.79 104.633 169.327 104.633 169.99C104.633 170.653 105.171 171.19 105.833 171.19Z" fill="white"/>
<path d="M120.814 169.99C120.814 170.65 120.274 171.19 119.614 171.19C118.954 171.19 118.414 170.65 118.414 169.99C118.414 169.33 118.954 168.79 119.614 168.79C120.274 168.79 120.814 169.33 120.814 169.99Z" fill="white"/>
<path d="M133.393 171.19C134.056 171.19 134.593 170.653 134.593 169.99C134.593 169.327 134.056 168.79 133.393 168.79C132.731 168.79 132.193 169.327 132.193 169.99C132.193 170.653 132.731 171.19 133.393 171.19Z" fill="white"/>
<path d="M147.174 171.19C147.836 171.19 148.374 170.653 148.374 169.99C148.374 169.327 147.836 168.79 147.174 168.79C146.511 168.79 145.974 169.327 145.974 169.99C145.974 170.653 146.511 171.19 147.174 171.19Z" fill="white"/>
<path d="M160.964 171.19C161.626 171.19 162.164 170.653 162.164 169.99C162.164 169.327 161.626 168.79 160.964 168.79C160.301 168.79 159.764 169.327 159.764 169.99C159.764 170.653 160.301 171.19 160.964 171.19Z" fill="white"/>
<path d="M174.743 171.19C175.406 171.19 175.943 170.653 175.943 169.99C175.943 169.327 175.406 168.79 174.743 168.79C174.081 168.79 173.543 169.327 173.543 169.99C173.543 170.653 174.081 171.19 174.743 171.19Z" fill="white"/>
<path d="M188.523 171.19C189.186 171.19 189.723 170.653 189.723 169.99C189.723 169.327 189.186 168.79 188.523 168.79C187.861 168.79 187.323 169.327 187.323 169.99C187.323 170.653 187.861 171.19 188.523 171.19Z" fill="white"/>
<path d="M202.304 171.19C202.966 171.19 203.504 170.653 203.504 169.99C203.504 169.327 202.966 168.79 202.304 168.79C201.641 168.79 201.104 169.327 201.104 169.99C201.104 170.653 201.641 171.19 202.304 171.19Z" fill="white"/>
<path d="M216.083 171.19C216.746 171.19 217.283 170.653 217.283 169.99C217.283 169.327 216.746 168.79 216.083 168.79C215.421 168.79 214.883 169.327 214.883 169.99C214.883 170.653 215.421 171.19 216.083 171.19Z" fill="white"/>
<path d="M229.864 171.19C230.526 171.19 231.064 170.653 231.064 169.99C231.064 169.327 230.526 168.79 229.864 168.79C229.201 168.79 228.664 169.327 228.664 169.99C228.664 170.653 229.201 171.19 229.864 171.19Z" fill="white"/>
<path d="M244.843 169.99C244.843 170.65 244.303 171.19 243.643 171.19C242.983 171.19 242.443 170.65 242.443 169.99C242.443 169.33 242.983 168.79 243.643 168.79C244.313 168.79 244.843 169.33 244.843 169.99Z" fill="white"/>
<path d="M257.433 171.19C258.096 171.19 258.633 170.653 258.633 169.99C258.633 169.327 258.096 168.79 257.433 168.79C256.771 168.79 256.233 169.327 256.233 169.99C256.233 170.653 256.771 171.19 257.433 171.19Z" fill="white"/>
<path d="M9.36359 184.67C10.0263 184.67 10.5636 184.133 10.5636 183.47C10.5636 182.807 10.0263 182.27 9.36359 182.27C8.70084 182.27 8.16357 182.807 8.16357 183.47C8.16357 184.133 8.70084 184.67 9.36359 184.67Z" fill="white"/>
<path d="M24.3433 183.47C24.3433 184.13 23.8034 184.67 23.1434 184.67C22.4834 184.67 21.9434 184.13 21.9434 183.47C21.9434 182.81 22.4834 182.27 23.1434 182.27C23.8034 182.27 24.3433 182.81 24.3433 183.47Z" fill="white"/>
<path d="M36.9236 184.67C37.5864 184.67 38.1237 184.133 38.1237 183.47C38.1237 182.807 37.5864 182.27 36.9236 182.27C36.2609 182.27 35.7236 182.807 35.7236 183.47C35.7236 184.133 36.2609 184.67 36.9236 184.67Z" fill="white"/>
<path d="M50.7034 184.67C51.3662 184.67 51.9034 184.133 51.9034 183.47C51.9034 182.807 51.3662 182.27 50.7034 182.27C50.0407 182.27 49.5034 182.807 49.5034 183.47C49.5034 184.133 50.0407 184.67 50.7034 184.67Z" fill="white"/>
<path d="M64.4832 184.67C65.146 184.67 65.6832 184.133 65.6832 183.47C65.6832 182.807 65.146 182.27 64.4832 182.27C63.8205 182.27 63.2832 182.807 63.2832 183.47C63.2832 184.133 63.8205 184.67 64.4832 184.67Z" fill="white"/>
<path d="M78.2733 184.67C78.936 184.67 79.4732 184.133 79.4732 183.47C79.4732 182.807 78.936 182.27 78.2733 182.27C77.6105 182.27 77.0732 182.807 77.0732 183.47C77.0732 184.133 77.6105 184.67 78.2733 184.67Z" fill="white"/>
<path d="M92.0535 184.67C92.7163 184.67 93.2535 184.133 93.2535 183.47C93.2535 182.807 92.7163 182.27 92.0535 182.27C91.3908 182.27 90.8535 182.807 90.8535 183.47C90.8535 184.133 91.3908 184.67 92.0535 184.67Z" fill="white"/>
<path d="M105.833 184.67C106.496 184.67 107.033 184.133 107.033 183.47C107.033 182.807 106.496 182.27 105.833 182.27C105.171 182.27 104.633 182.807 104.633 183.47C104.633 184.133 105.171 184.67 105.833 184.67Z" fill="white"/>
<path d="M120.814 183.47C120.814 184.13 120.274 184.67 119.614 184.67C118.954 184.67 118.414 184.13 118.414 183.47C118.414 182.81 118.954 182.27 119.614 182.27C120.274 182.27 120.814 182.81 120.814 183.47Z" fill="white"/>
<path d="M133.393 184.67C134.056 184.67 134.593 184.133 134.593 183.47C134.593 182.807 134.056 182.27 133.393 182.27C132.731 182.27 132.193 182.807 132.193 183.47C132.193 184.133 132.731 184.67 133.393 184.67Z" fill="white"/>
<path d="M147.174 184.67C147.836 184.67 148.374 184.133 148.374 183.47C148.374 182.807 147.836 182.27 147.174 182.27C146.511 182.27 145.974 182.807 145.974 183.47C145.974 184.133 146.511 184.67 147.174 184.67Z" fill="white"/>
<path d="M160.964 184.67C161.626 184.67 162.164 184.133 162.164 183.47C162.164 182.807 161.626 182.27 160.964 182.27C160.301 182.27 159.764 182.807 159.764 183.47C159.764 184.133 160.301 184.67 160.964 184.67Z" fill="white"/>
<path d="M174.743 184.67C175.406 184.67 175.943 184.133 175.943 183.47C175.943 182.807 175.406 182.27 174.743 182.27C174.081 182.27 173.543 182.807 173.543 183.47C173.543 184.133 174.081 184.67 174.743 184.67Z" fill="white"/>
<path d="M188.523 184.67C189.186 184.67 189.723 184.133 189.723 183.47C189.723 182.807 189.186 182.27 188.523 182.27C187.861 182.27 187.323 182.807 187.323 183.47C187.323 184.133 187.861 184.67 188.523 184.67Z" fill="white"/>
<path d="M202.304 184.67C202.966 184.67 203.504 184.133 203.504 183.47C203.504 182.807 202.966 182.27 202.304 182.27C201.641 182.27 201.104 182.807 201.104 183.47C201.104 184.133 201.641 184.67 202.304 184.67Z" fill="white"/>
<path d="M216.083 184.67C216.746 184.67 217.283 184.133 217.283 183.47C217.283 182.807 216.746 182.27 216.083 182.27C215.421 182.27 214.883 182.807 214.883 183.47C214.883 184.133 215.421 184.67 216.083 184.67Z" fill="white"/>
<path d="M229.864 184.67C230.526 184.67 231.064 184.133 231.064 183.47C231.064 182.807 230.526 182.27 229.864 182.27C229.201 182.27 228.664 182.807 228.664 183.47C228.664 184.133 229.201 184.67 229.864 184.67Z" fill="white"/>
<path d="M244.843 183.47C244.843 184.13 244.303 184.67 243.643 184.67C242.983 184.67 242.443 184.13 242.443 183.47C242.443 182.81 242.983 182.27 243.643 182.27C244.313 182.27 244.843 182.81 244.843 183.47Z" fill="white"/>
<path d="M257.433 184.67C258.096 184.67 258.633 184.133 258.633 183.47C258.633 182.807 258.096 182.27 257.433 182.27C256.771 182.27 256.233 182.807 256.233 183.47C256.233 184.133 256.771 184.67 257.433 184.67Z" fill="white"/>
<path d="M9.36359 198.15C10.0263 198.15 10.5636 197.613 10.5636 196.95C10.5636 196.287 10.0263 195.75 9.36359 195.75C8.70084 195.75 8.16357 196.287 8.16357 196.95C8.16357 197.613 8.70084 198.15 9.36359 198.15Z" fill="white"/>
<path d="M24.3433 196.95C24.3433 197.61 23.8034 198.15 23.1434 198.15C22.4834 198.15 21.9434 197.61 21.9434 196.95C21.9434 196.29 22.4834 195.75 23.1434 195.75C23.8034 195.75 24.3433 196.29 24.3433 196.95Z" fill="white"/>
<path d="M36.9236 198.15C37.5864 198.15 38.1237 197.613 38.1237 196.95C38.1237 196.287 37.5864 195.75 36.9236 195.75C36.2609 195.75 35.7236 196.287 35.7236 196.95C35.7236 197.613 36.2609 198.15 36.9236 198.15Z" fill="white"/>
<path d="M50.7034 198.15C51.3662 198.15 51.9034 197.613 51.9034 196.95C51.9034 196.287 51.3662 195.75 50.7034 195.75C50.0407 195.75 49.5034 196.287 49.5034 196.95C49.5034 197.613 50.0407 198.15 50.7034 198.15Z" fill="white"/>
<path d="M64.4832 198.15C65.146 198.15 65.6832 197.613 65.6832 196.95C65.6832 196.287 65.146 195.75 64.4832 195.75C63.8205 195.75 63.2832 196.287 63.2832 196.95C63.2832 197.613 63.8205 198.15 64.4832 198.15Z" fill="white"/>
<path d="M78.2733 198.15C78.936 198.15 79.4732 197.613 79.4732 196.95C79.4732 196.287 78.936 195.75 78.2733 195.75C77.6105 195.75 77.0732 196.287 77.0732 196.95C77.0732 197.613 77.6105 198.15 78.2733 198.15Z" fill="white"/>
<path d="M92.0535 198.15C92.7163 198.15 93.2535 197.613 93.2535 196.95C93.2535 196.287 92.7163 195.75 92.0535 195.75C91.3908 195.75 90.8535 196.287 90.8535 196.95C90.8535 197.613 91.3908 198.15 92.0535 198.15Z" fill="white"/>
<path d="M105.833 198.15C106.496 198.15 107.033 197.613 107.033 196.95C107.033 196.287 106.496 195.75 105.833 195.75C105.171 195.75 104.633 196.287 104.633 196.95C104.633 197.613 105.171 198.15 105.833 198.15Z" fill="white"/>
<path d="M120.814 196.95C120.814 197.61 120.274 198.15 119.614 198.15C118.954 198.15 118.414 197.61 118.414 196.95C118.414 196.29 118.954 195.75 119.614 195.75C120.274 195.75 120.814 196.29 120.814 196.95Z" fill="white"/>
<path d="M133.393 198.15C134.056 198.15 134.593 197.613 134.593 196.95C134.593 196.287 134.056 195.75 133.393 195.75C132.731 195.75 132.193 196.287 132.193 196.95C132.193 197.613 132.731 198.15 133.393 198.15Z" fill="white"/>
<path d="M147.174 198.15C147.836 198.15 148.374 197.613 148.374 196.95C148.374 196.287 147.836 195.75 147.174 195.75C146.511 195.75 145.974 196.287 145.974 196.95C145.974 197.613 146.511 198.15 147.174 198.15Z" fill="white"/>
<path d="M160.964 198.15C161.626 198.15 162.164 197.613 162.164 196.95C162.164 196.287 161.626 195.75 160.964 195.75C160.301 195.75 159.764 196.287 159.764 196.95C159.764 197.613 160.301 198.15 160.964 198.15Z" fill="white"/>
<path d="M174.743 198.15C175.406 198.15 175.943 197.613 175.943 196.95C175.943 196.287 175.406 195.75 174.743 195.75C174.081 195.75 173.543 196.287 173.543 196.95C173.543 197.613 174.081 198.15 174.743 198.15Z" fill="white"/>
<path d="M188.523 198.15C189.186 198.15 189.723 197.613 189.723 196.95C189.723 196.287 189.186 195.75 188.523 195.75C187.861 195.75 187.323 196.287 187.323 196.95C187.323 197.613 187.861 198.15 188.523 198.15Z" fill="white"/>
<path d="M202.304 198.15C202.966 198.15 203.504 197.613 203.504 196.95C203.504 196.287 202.966 195.75 202.304 195.75C201.641 195.75 201.104 196.287 201.104 196.95C201.104 197.613 201.641 198.15 202.304 198.15Z" fill="white"/>
<path d="M216.083 198.15C216.746 198.15 217.283 197.613 217.283 196.95C217.283 196.287 216.746 195.75 216.083 195.75C215.421 195.75 214.883 196.287 214.883 196.95C214.883 197.613 215.421 198.15 216.083 198.15Z" fill="white"/>
<path d="M229.864 198.15C230.526 198.15 231.064 197.613 231.064 196.95C231.064 196.287 230.526 195.75 229.864 195.75C229.201 195.75 228.664 196.287 228.664 196.95C228.664 197.613 229.201 198.15 229.864 198.15Z" fill="white"/>
<path d="M244.843 196.95C244.843 197.61 244.303 198.15 243.643 198.15C242.983 198.15 242.443 197.61 242.443 196.95C242.443 196.29 242.983 195.75 243.643 195.75C244.313 195.75 244.843 196.29 244.843 196.95Z" fill="white"/>
<path d="M257.433 198.15C258.096 198.15 258.633 197.613 258.633 196.95C258.633 196.287 258.096 195.75 257.433 195.75C256.771 195.75 256.233 196.287 256.233 196.95C256.233 197.613 256.771 198.15 257.433 198.15Z" fill="white"/>
<path d="M9.36359 211.63C10.0263 211.63 10.5636 211.093 10.5636 210.43C10.5636 209.767 10.0263 209.23 9.36359 209.23C8.70084 209.23 8.16357 209.767 8.16357 210.43C8.16357 211.093 8.70084 211.63 9.36359 211.63Z" fill="white"/>
<path d="M24.3433 210.43C24.3433 211.09 23.8034 211.63 23.1434 211.63C22.4834 211.63 21.9434 211.09 21.9434 210.43C21.9434 209.77 22.4834 209.23 23.1434 209.23C23.8034 209.24 24.3433 209.77 24.3433 210.43Z" fill="white"/>
<path d="M36.9236 211.63C37.5864 211.63 38.1237 211.093 38.1237 210.43C38.1237 209.767 37.5864 209.23 36.9236 209.23C36.2609 209.23 35.7236 209.767 35.7236 210.43C35.7236 211.093 36.2609 211.63 36.9236 211.63Z" fill="white"/>
<path d="M50.7034 211.63C51.3662 211.63 51.9034 211.093 51.9034 210.43C51.9034 209.767 51.3662 209.23 50.7034 209.23C50.0407 209.23 49.5034 209.767 49.5034 210.43C49.5034 211.093 50.0407 211.63 50.7034 211.63Z" fill="white"/>
<path d="M64.4832 211.63C65.146 211.63 65.6832 211.093 65.6832 210.43C65.6832 209.767 65.146 209.23 64.4832 209.23C63.8205 209.23 63.2832 209.767 63.2832 210.43C63.2832 211.093 63.8205 211.63 64.4832 211.63Z" fill="white"/>
<path d="M78.2733 211.63C78.936 211.63 79.4732 211.093 79.4732 210.43C79.4732 209.767 78.936 209.23 78.2733 209.23C77.6105 209.23 77.0732 209.767 77.0732 210.43C77.0732 211.093 77.6105 211.63 78.2733 211.63Z" fill="white"/>
<path d="M92.0535 211.63C92.7163 211.63 93.2535 211.093 93.2535 210.43C93.2535 209.767 92.7163 209.23 92.0535 209.23C91.3908 209.23 90.8535 209.767 90.8535 210.43C90.8535 211.093 91.3908 211.63 92.0535 211.63Z" fill="white"/>
<path d="M105.833 211.63C106.496 211.63 107.033 211.093 107.033 210.43C107.033 209.767 106.496 209.23 105.833 209.23C105.171 209.23 104.633 209.767 104.633 210.43C104.633 211.093 105.171 211.63 105.833 211.63Z" fill="white"/>
<path d="M120.814 210.43C120.814 211.09 120.274 211.63 119.614 211.63C118.954 211.63 118.414 211.09 118.414 210.43C118.414 209.77 118.954 209.23 119.614 209.23C120.274 209.24 120.814 209.77 120.814 210.43Z" fill="white"/>
<path d="M133.393 211.63C134.056 211.63 134.593 211.093 134.593 210.43C134.593 209.767 134.056 209.23 133.393 209.23C132.731 209.23 132.193 209.767 132.193 210.43C132.193 211.093 132.731 211.63 133.393 211.63Z" fill="white"/>
<path d="M147.174 211.63C147.836 211.63 148.374 211.093 148.374 210.43C148.374 209.767 147.836 209.23 147.174 209.23C146.511 209.23 145.974 209.767 145.974 210.43C145.974 211.093 146.511 211.63 147.174 211.63Z" fill="white"/>
<path d="M160.964 211.63C161.626 211.63 162.164 211.093 162.164 210.43C162.164 209.767 161.626 209.23 160.964 209.23C160.301 209.23 159.764 209.767 159.764 210.43C159.764 211.093 160.301 211.63 160.964 211.63Z" fill="white"/>
<path d="M174.743 211.63C175.406 211.63 175.943 211.093 175.943 210.43C175.943 209.767 175.406 209.23 174.743 209.23C174.081 209.23 173.543 209.767 173.543 210.43C173.543 211.093 174.081 211.63 174.743 211.63Z" fill="white"/>
<path d="M188.523 211.63C189.186 211.63 189.723 211.093 189.723 210.43C189.723 209.767 189.186 209.23 188.523 209.23C187.861 209.23 187.323 209.767 187.323 210.43C187.323 211.093 187.861 211.63 188.523 211.63Z" fill="white"/>
<path d="M202.304 211.63C202.966 211.63 203.504 211.093 203.504 210.43C203.504 209.767 202.966 209.23 202.304 209.23C201.641 209.23 201.104 209.767 201.104 210.43C201.104 211.093 201.641 211.63 202.304 211.63Z" fill="white"/>
<path d="M216.083 211.63C216.746 211.63 217.283 211.093 217.283 210.43C217.283 209.767 216.746 209.23 216.083 209.23C215.421 209.23 214.883 209.767 214.883 210.43C214.883 211.093 215.421 211.63 216.083 211.63Z" fill="white"/>
<path d="M229.864 211.63C230.526 211.63 231.064 211.093 231.064 210.43C231.064 209.767 230.526 209.23 229.864 209.23C229.201 209.23 228.664 209.767 228.664 210.43C228.664 211.093 229.201 211.63 229.864 211.63Z" fill="white"/>
<path d="M244.843 210.43C244.843 211.09 244.303 211.63 243.643 211.63C242.983 211.63 242.443 211.09 242.443 210.43C242.443 209.77 242.983 209.23 243.643 209.23C244.313 209.24 244.843 209.77 244.843 210.43Z" fill="white"/>
<path d="M257.433 211.63C258.096 211.63 258.633 211.093 258.633 210.43C258.633 209.767 258.096 209.23 257.433 209.23C256.771 209.23 256.233 209.767 256.233 210.43C256.233 211.093 256.771 211.63 257.433 211.63Z" fill="white"/>
<path d="M9.36359 225.12C10.0263 225.12 10.5636 224.583 10.5636 223.92C10.5636 223.257 10.0263 222.72 9.36359 222.72C8.70084 222.72 8.16357 223.257 8.16357 223.92C8.16357 224.583 8.70084 225.12 9.36359 225.12Z" fill="white"/>
<path d="M24.3433 223.92C24.3433 224.58 23.8034 225.12 23.1434 225.12C22.4834 225.12 21.9434 224.58 21.9434 223.92C21.9434 223.26 22.4834 222.72 23.1434 222.72C23.8034 222.72 24.3433 223.25 24.3433 223.92Z" fill="white"/>
<path d="M36.9236 225.12C37.5864 225.12 38.1237 224.583 38.1237 223.92C38.1237 223.257 37.5864 222.72 36.9236 222.72C36.2609 222.72 35.7236 223.257 35.7236 223.92C35.7236 224.583 36.2609 225.12 36.9236 225.12Z" fill="white"/>
<path d="M50.7034 225.12C51.3662 225.12 51.9034 224.583 51.9034 223.92C51.9034 223.257 51.3662 222.72 50.7034 222.72C50.0407 222.72 49.5034 223.257 49.5034 223.92C49.5034 224.583 50.0407 225.12 50.7034 225.12Z" fill="white"/>
<path d="M64.4832 225.12C65.146 225.12 65.6832 224.583 65.6832 223.92C65.6832 223.257 65.146 222.72 64.4832 222.72C63.8205 222.72 63.2832 223.257 63.2832 223.92C63.2832 224.583 63.8205 225.12 64.4832 225.12Z" fill="white"/>
<path d="M78.2733 225.12C78.936 225.12 79.4732 224.583 79.4732 223.92C79.4732 223.257 78.936 222.72 78.2733 222.72C77.6105 222.72 77.0732 223.257 77.0732 223.92C77.0732 224.583 77.6105 225.12 78.2733 225.12Z" fill="white"/>
<path d="M92.0535 225.12C92.7163 225.12 93.2535 224.583 93.2535 223.92C93.2535 223.257 92.7163 222.72 92.0535 222.72C91.3908 222.72 90.8535 223.257 90.8535 223.92C90.8535 224.583 91.3908 225.12 92.0535 225.12Z" fill="white"/>
<path d="M105.833 225.12C106.496 225.12 107.033 224.583 107.033 223.92C107.033 223.257 106.496 222.72 105.833 222.72C105.171 222.72 104.633 223.257 104.633 223.92C104.633 224.583 105.171 225.12 105.833 225.12Z" fill="white"/>
<path d="M120.814 223.92C120.814 224.58 120.274 225.12 119.614 225.12C118.954 225.12 118.414 224.58 118.414 223.92C118.414 223.26 118.954 222.72 119.614 222.72C120.274 222.72 120.814 223.25 120.814 223.92Z" fill="white"/>
<path d="M133.393 225.12C134.056 225.12 134.593 224.583 134.593 223.92C134.593 223.257 134.056 222.72 133.393 222.72C132.731 222.72 132.193 223.257 132.193 223.92C132.193 224.583 132.731 225.12 133.393 225.12Z" fill="white"/>
<path d="M147.174 225.12C147.836 225.12 148.374 224.583 148.374 223.92C148.374 223.257 147.836 222.72 147.174 222.72C146.511 222.72 145.974 223.257 145.974 223.92C145.974 224.583 146.511 225.12 147.174 225.12Z" fill="white"/>
<path d="M160.964 225.12C161.626 225.12 162.164 224.583 162.164 223.92C162.164 223.257 161.626 222.72 160.964 222.72C160.301 222.72 159.764 223.257 159.764 223.92C159.764 224.583 160.301 225.12 160.964 225.12Z" fill="white"/>
<path d="M174.743 225.12C175.406 225.12 175.943 224.583 175.943 223.92C175.943 223.257 175.406 222.72 174.743 222.72C174.081 222.72 173.543 223.257 173.543 223.92C173.543 224.583 174.081 225.12 174.743 225.12Z" fill="white"/>
<path d="M188.523 225.12C189.186 225.12 189.723 224.583 189.723 223.92C189.723 223.257 189.186 222.72 188.523 222.72C187.861 222.72 187.323 223.257 187.323 223.92C187.323 224.583 187.861 225.12 188.523 225.12Z" fill="white"/>
<path d="M202.304 225.12C202.966 225.12 203.504 224.583 203.504 223.92C203.504 223.257 202.966 222.72 202.304 222.72C201.641 222.72 201.104 223.257 201.104 223.92C201.104 224.583 201.641 225.12 202.304 225.12Z" fill="white"/>
<path d="M216.083 225.12C216.746 225.12 217.283 224.583 217.283 223.92C217.283 223.257 216.746 222.72 216.083 222.72C215.421 222.72 214.883 223.257 214.883 223.92C214.883 224.583 215.421 225.12 216.083 225.12Z" fill="white"/>
<path d="M229.864 225.12C230.526 225.12 231.064 224.583 231.064 223.92C231.064 223.257 230.526 222.72 229.864 222.72C229.201 222.72 228.664 223.257 228.664 223.92C228.664 224.583 229.201 225.12 229.864 225.12Z" fill="white"/>
<path d="M244.843 223.92C244.843 224.58 244.303 225.12 243.643 225.12C242.983 225.12 242.443 224.58 242.443 223.92C242.443 223.26 242.983 222.72 243.643 222.72C244.313 222.72 244.843 223.25 244.843 223.92Z" fill="white"/>
<path d="M257.433 225.12C258.096 225.12 258.633 224.583 258.633 223.92C258.633 223.257 258.096 222.72 257.433 222.72C256.771 222.72 256.233 223.257 256.233 223.92C256.233 224.583 256.771 225.12 257.433 225.12Z" fill="white"/>
<path d="M9.36359 238.6C10.0263 238.6 10.5636 238.063 10.5636 237.4C10.5636 236.737 10.0263 236.2 9.36359 236.2C8.70084 236.2 8.16357 236.737 8.16357 237.4C8.16357 238.063 8.70084 238.6 9.36359 238.6Z" fill="white"/>
<path d="M24.3433 237.4C24.3433 238.06 23.8034 238.6 23.1434 238.6C22.4834 238.6 21.9434 238.06 21.9434 237.4C21.9434 236.74 22.4834 236.2 23.1434 236.2C23.8034 236.2 24.3433 236.74 24.3433 237.4Z" fill="white"/>
<path d="M36.9236 238.6C37.5864 238.6 38.1237 238.063 38.1237 237.4C38.1237 236.737 37.5864 236.2 36.9236 236.2C36.2609 236.2 35.7236 236.737 35.7236 237.4C35.7236 238.063 36.2609 238.6 36.9236 238.6Z" fill="white"/>
<path d="M50.7034 238.6C51.3662 238.6 51.9034 238.063 51.9034 237.4C51.9034 236.737 51.3662 236.2 50.7034 236.2C50.0407 236.2 49.5034 236.737 49.5034 237.4C49.5034 238.063 50.0407 238.6 50.7034 238.6Z" fill="white"/>
<path d="M64.4832 238.6C65.146 238.6 65.6832 238.063 65.6832 237.4C65.6832 236.737 65.146 236.2 64.4832 236.2C63.8205 236.2 63.2832 236.737 63.2832 237.4C63.2832 238.063 63.8205 238.6 64.4832 238.6Z" fill="white"/>
<path d="M78.2733 238.6C78.936 238.6 79.4732 238.063 79.4732 237.4C79.4732 236.737 78.936 236.2 78.2733 236.2C77.6105 236.2 77.0732 236.737 77.0732 237.4C77.0732 238.063 77.6105 238.6 78.2733 238.6Z" fill="white"/>
<path d="M92.0535 238.6C92.7163 238.6 93.2535 238.063 93.2535 237.4C93.2535 236.737 92.7163 236.2 92.0535 236.2C91.3908 236.2 90.8535 236.737 90.8535 237.4C90.8535 238.063 91.3908 238.6 92.0535 238.6Z" fill="white"/>
<path d="M105.833 238.6C106.496 238.6 107.033 238.063 107.033 237.4C107.033 236.737 106.496 236.2 105.833 236.2C105.171 236.2 104.633 236.737 104.633 237.4C104.633 238.063 105.171 238.6 105.833 238.6Z" fill="white"/>
<path d="M120.814 237.4C120.814 238.06 120.274 238.6 119.614 238.6C118.954 238.6 118.414 238.06 118.414 237.4C118.414 236.74 118.954 236.2 119.614 236.2C120.274 236.2 120.814 236.74 120.814 237.4Z" fill="white"/>
<path d="M133.393 238.6C134.056 238.6 134.593 238.063 134.593 237.4C134.593 236.737 134.056 236.2 133.393 236.2C132.731 236.2 132.193 236.737 132.193 237.4C132.193 238.063 132.731 238.6 133.393 238.6Z" fill="white"/>
<path d="M147.174 238.6C147.836 238.6 148.374 238.063 148.374 237.4C148.374 236.737 147.836 236.2 147.174 236.2C146.511 236.2 145.974 236.737 145.974 237.4C145.974 238.063 146.511 238.6 147.174 238.6Z" fill="white"/>
<path d="M160.964 238.6C161.626 238.6 162.164 238.063 162.164 237.4C162.164 236.737 161.626 236.2 160.964 236.2C160.301 236.2 159.764 236.737 159.764 237.4C159.764 238.063 160.301 238.6 160.964 238.6Z" fill="white"/>
<path d="M174.743 238.6C175.406 238.6 175.943 238.063 175.943 237.4C175.943 236.737 175.406 236.2 174.743 236.2C174.081 236.2 173.543 236.737 173.543 237.4C173.543 238.063 174.081 238.6 174.743 238.6Z" fill="white"/>
<path d="M188.523 238.6C189.186 238.6 189.723 238.063 189.723 237.4C189.723 236.737 189.186 236.2 188.523 236.2C187.861 236.2 187.323 236.737 187.323 237.4C187.323 238.063 187.861 238.6 188.523 238.6Z" fill="white"/>
<path d="M202.304 238.6C202.966 238.6 203.504 238.063 203.504 237.4C203.504 236.737 202.966 236.2 202.304 236.2C201.641 236.2 201.104 236.737 201.104 237.4C201.104 238.063 201.641 238.6 202.304 238.6Z" fill="white"/>
<path d="M216.083 238.6C216.746 238.6 217.283 238.063 217.283 237.4C217.283 236.737 216.746 236.2 216.083 236.2C215.421 236.2 214.883 236.737 214.883 237.4C214.883 238.063 215.421 238.6 216.083 238.6Z" fill="white"/>
<path d="M229.864 238.6C230.526 238.6 231.064 238.063 231.064 237.4C231.064 236.737 230.526 236.2 229.864 236.2C229.201 236.2 228.664 236.737 228.664 237.4C228.664 238.063 229.201 238.6 229.864 238.6Z" fill="white"/>
<path d="M244.843 237.4C244.843 238.06 244.303 238.6 243.643 238.6C242.983 238.6 242.443 238.06 242.443 237.4C242.443 236.74 242.983 236.2 243.643 236.2C244.313 236.2 244.843 236.74 244.843 237.4Z" fill="white"/>
<path d="M257.433 238.6C258.096 238.6 258.633 238.063 258.633 237.4C258.633 236.737 258.096 236.2 257.433 236.2C256.771 236.2 256.233 236.737 256.233 237.4C256.233 238.063 256.771 238.6 257.433 238.6Z" fill="white"/>
<path d="M9.36359 252.08C10.0263 252.08 10.5636 251.543 10.5636 250.88C10.5636 250.217 10.0263 249.68 9.36359 249.68C8.70084 249.68 8.16357 250.217 8.16357 250.88C8.16357 251.543 8.70084 252.08 9.36359 252.08Z" fill="white"/>
<path d="M24.3433 250.88C24.3433 251.54 23.8034 252.08 23.1434 252.08C22.4834 252.08 21.9434 251.54 21.9434 250.88C21.9434 250.22 22.4834 249.68 23.1434 249.68C23.8034 249.68 24.3433 250.22 24.3433 250.88Z" fill="white"/>
<path d="M36.9236 252.08C37.5864 252.08 38.1237 251.543 38.1237 250.88C38.1237 250.217 37.5864 249.68 36.9236 249.68C36.2609 249.68 35.7236 250.217 35.7236 250.88C35.7236 251.543 36.2609 252.08 36.9236 252.08Z" fill="white"/>
<path d="M50.7034 252.08C51.3662 252.08 51.9034 251.543 51.9034 250.88C51.9034 250.217 51.3662 249.68 50.7034 249.68C50.0407 249.68 49.5034 250.217 49.5034 250.88C49.5034 251.543 50.0407 252.08 50.7034 252.08Z" fill="white"/>
<path d="M64.4832 252.08C65.146 252.08 65.6832 251.543 65.6832 250.88C65.6832 250.217 65.146 249.68 64.4832 249.68C63.8205 249.68 63.2832 250.217 63.2832 250.88C63.2832 251.543 63.8205 252.08 64.4832 252.08Z" fill="white"/>
<path d="M78.2733 252.08C78.936 252.08 79.4732 251.543 79.4732 250.88C79.4732 250.217 78.936 249.68 78.2733 249.68C77.6105 249.68 77.0732 250.217 77.0732 250.88C77.0732 251.543 77.6105 252.08 78.2733 252.08Z" fill="white"/>
<path d="M92.0535 252.08C92.7163 252.08 93.2535 251.543 93.2535 250.88C93.2535 250.217 92.7163 249.68 92.0535 249.68C91.3908 249.68 90.8535 250.217 90.8535 250.88C90.8535 251.543 91.3908 252.08 92.0535 252.08Z" fill="white"/>
<path d="M105.833 252.08C106.496 252.08 107.033 251.543 107.033 250.88C107.033 250.217 106.496 249.68 105.833 249.68C105.171 249.68 104.633 250.217 104.633 250.88C104.633 251.543 105.171 252.08 105.833 252.08Z" fill="white"/>
<path d="M120.814 250.88C120.814 251.54 120.274 252.08 119.614 252.08C118.954 252.08 118.414 251.54 118.414 250.88C118.414 250.22 118.954 249.68 119.614 249.68C120.274 249.68 120.814 250.22 120.814 250.88Z" fill="white"/>
<path d="M133.393 252.08C134.056 252.08 134.593 251.543 134.593 250.88C134.593 250.217 134.056 249.68 133.393 249.68C132.731 249.68 132.193 250.217 132.193 250.88C132.193 251.543 132.731 252.08 133.393 252.08Z" fill="white"/>
<path d="M147.174 252.08C147.836 252.08 148.374 251.543 148.374 250.88C148.374 250.217 147.836 249.68 147.174 249.68C146.511 249.68 145.974 250.217 145.974 250.88C145.974 251.543 146.511 252.08 147.174 252.08Z" fill="white"/>
<path d="M160.964 252.08C161.626 252.08 162.164 251.543 162.164 250.88C162.164 250.217 161.626 249.68 160.964 249.68C160.301 249.68 159.764 250.217 159.764 250.88C159.764 251.543 160.301 252.08 160.964 252.08Z" fill="white"/>
<path d="M174.743 252.08C175.406 252.08 175.943 251.543 175.943 250.88C175.943 250.217 175.406 249.68 174.743 249.68C174.081 249.68 173.543 250.217 173.543 250.88C173.543 251.543 174.081 252.08 174.743 252.08Z" fill="white"/>
<path d="M188.523 252.08C189.186 252.08 189.723 251.543 189.723 250.88C189.723 250.217 189.186 249.68 188.523 249.68C187.861 249.68 187.323 250.217 187.323 250.88C187.323 251.543 187.861 252.08 188.523 252.08Z" fill="white"/>
<path d="M202.304 252.08C202.966 252.08 203.504 251.543 203.504 250.88C203.504 250.217 202.966 249.68 202.304 249.68C201.641 249.68 201.104 250.217 201.104 250.88C201.104 251.543 201.641 252.08 202.304 252.08Z" fill="white"/>
<path d="M216.083 252.08C216.746 252.08 217.283 251.543 217.283 250.88C217.283 250.217 216.746 249.68 216.083 249.68C215.421 249.68 214.883 250.217 214.883 250.88C214.883 251.543 215.421 252.08 216.083 252.08Z" fill="white"/>
<path d="M229.864 252.08C230.526 252.08 231.064 251.543 231.064 250.88C231.064 250.217 230.526 249.68 229.864 249.68C229.201 249.68 228.664 250.217 228.664 250.88C228.664 251.543 229.201 252.08 229.864 252.08Z" fill="white"/>
<path d="M244.843 250.88C244.843 251.54 244.303 252.08 243.643 252.08C242.983 252.08 242.443 251.54 242.443 250.88C242.443 250.22 242.983 249.68 243.643 249.68C244.313 249.68 244.843 250.22 244.843 250.88Z" fill="white"/>
<path d="M257.433 252.08C258.096 252.08 258.633 251.543 258.633 250.88C258.633 250.217 258.096 249.68 257.433 249.68C256.771 249.68 256.233 250.217 256.233 250.88C256.233 251.543 256.771 252.08 257.433 252.08Z" fill="white"/>
<path d="M9.36359 265.56C10.0263 265.56 10.5636 265.023 10.5636 264.36C10.5636 263.697 10.0263 263.16 9.36359 263.16C8.70084 263.16 8.16357 263.697 8.16357 264.36C8.16357 265.023 8.70084 265.56 9.36359 265.56Z" fill="white"/>
<path d="M24.3433 264.36C24.3433 265.02 23.8034 265.56 23.1434 265.56C22.4834 265.56 21.9434 265.02 21.9434 264.36C21.9434 263.7 22.4834 263.16 23.1434 263.16C23.8034 263.16 24.3433 263.7 24.3433 264.36Z" fill="white"/>
<path d="M36.9236 265.56C37.5864 265.56 38.1237 265.023 38.1237 264.36C38.1237 263.697 37.5864 263.16 36.9236 263.16C36.2609 263.16 35.7236 263.697 35.7236 264.36C35.7236 265.023 36.2609 265.56 36.9236 265.56Z" fill="white"/>
<path d="M50.7034 265.56C51.3662 265.56 51.9034 265.023 51.9034 264.36C51.9034 263.697 51.3662 263.16 50.7034 263.16C50.0407 263.16 49.5034 263.697 49.5034 264.36C49.5034 265.023 50.0407 265.56 50.7034 265.56Z" fill="white"/>
<path d="M64.4832 265.56C65.146 265.56 65.6832 265.023 65.6832 264.36C65.6832 263.697 65.146 263.16 64.4832 263.16C63.8205 263.16 63.2832 263.697 63.2832 264.36C63.2832 265.023 63.8205 265.56 64.4832 265.56Z" fill="white"/>
<path d="M78.2733 265.56C78.936 265.56 79.4732 265.023 79.4732 264.36C79.4732 263.697 78.936 263.16 78.2733 263.16C77.6105 263.16 77.0732 263.697 77.0732 264.36C77.0732 265.023 77.6105 265.56 78.2733 265.56Z" fill="white"/>
<path d="M92.0535 265.56C92.7163 265.56 93.2535 265.023 93.2535 264.36C93.2535 263.697 92.7163 263.16 92.0535 263.16C91.3908 263.16 90.8535 263.697 90.8535 264.36C90.8535 265.023 91.3908 265.56 92.0535 265.56Z" fill="white"/>
<path d="M105.833 265.56C106.496 265.56 107.033 265.023 107.033 264.36C107.033 263.697 106.496 263.16 105.833 263.16C105.171 263.16 104.633 263.697 104.633 264.36C104.633 265.023 105.171 265.56 105.833 265.56Z" fill="white"/>
<path d="M120.814 264.36C120.814 265.02 120.274 265.56 119.614 265.56C118.954 265.56 118.414 265.02 118.414 264.36C118.414 263.7 118.954 263.16 119.614 263.16C120.274 263.16 120.814 263.7 120.814 264.36Z" fill="white"/>
<path d="M133.393 265.56C134.056 265.56 134.593 265.023 134.593 264.36C134.593 263.697 134.056 263.16 133.393 263.16C132.731 263.16 132.193 263.697 132.193 264.36C132.193 265.023 132.731 265.56 133.393 265.56Z" fill="white"/>
<path d="M147.174 265.56C147.836 265.56 148.374 265.023 148.374 264.36C148.374 263.697 147.836 263.16 147.174 263.16C146.511 263.16 145.974 263.697 145.974 264.36C145.974 265.023 146.511 265.56 147.174 265.56Z" fill="white"/>
<path d="M160.964 265.56C161.626 265.56 162.164 265.023 162.164 264.36C162.164 263.697 161.626 263.16 160.964 263.16C160.301 263.16 159.764 263.697 159.764 264.36C159.764 265.023 160.301 265.56 160.964 265.56Z" fill="white"/>
<path d="M174.743 265.56C175.406 265.56 175.943 265.023 175.943 264.36C175.943 263.697 175.406 263.16 174.743 263.16C174.081 263.16 173.543 263.697 173.543 264.36C173.543 265.023 174.081 265.56 174.743 265.56Z" fill="white"/>
<path d="M188.523 265.56C189.186 265.56 189.723 265.023 189.723 264.36C189.723 263.697 189.186 263.16 188.523 263.16C187.861 263.16 187.323 263.697 187.323 264.36C187.323 265.023 187.861 265.56 188.523 265.56Z" fill="white"/>
<path d="M202.304 265.56C202.966 265.56 203.504 265.023 203.504 264.36C203.504 263.697 202.966 263.16 202.304 263.16C201.641 263.16 201.104 263.697 201.104 264.36C201.104 265.023 201.641 265.56 202.304 265.56Z" fill="white"/>
<path d="M216.083 265.56C216.746 265.56 217.283 265.023 217.283 264.36C217.283 263.697 216.746 263.16 216.083 263.16C215.421 263.16 214.883 263.697 214.883 264.36C214.883 265.023 215.421 265.56 216.083 265.56Z" fill="white"/>
<path d="M229.864 265.56C230.526 265.56 231.064 265.023 231.064 264.36C231.064 263.697 230.526 263.16 229.864 263.16C229.201 263.16 228.664 263.697 228.664 264.36C228.664 265.023 229.201 265.56 229.864 265.56Z" fill="white"/>
<path d="M244.843 264.36C244.843 265.02 244.303 265.56 243.643 265.56C242.983 265.56 242.443 265.02 242.443 264.36C242.443 263.7 242.983 263.16 243.643 263.16C244.313 263.16 244.843 263.7 244.843 264.36Z" fill="white"/>
<path d="M257.433 265.56C258.096 265.56 258.633 265.023 258.633 264.36C258.633 263.697 258.096 263.16 257.433 263.16C256.771 263.16 256.233 263.697 256.233 264.36C256.233 265.023 256.771 265.56 257.433 265.56Z" fill="white"/>
<path d="M10.5636 277.84C10.5636 278.5 10.0236 279.04 9.36359 279.04C8.70359 279.04 8.16357 278.5 8.16357 277.84C8.16357 277.18 8.70359 276.64 9.36359 276.64C10.0236 276.65 10.5636 277.18 10.5636 277.84Z" fill="white"/>
<path d="M24.3433 277.84C24.3433 278.5 23.8034 279.04 23.1434 279.04C22.4834 279.04 21.9434 278.5 21.9434 277.84C21.9434 277.18 22.4834 276.64 23.1434 276.64C23.8034 276.65 24.3433 277.18 24.3433 277.84Z" fill="white"/>
<path d="M38.1237 277.84C38.1237 278.5 37.5836 279.04 36.9236 279.04C36.2636 279.04 35.7236 278.5 35.7236 277.84C35.7236 277.18 36.2636 276.64 36.9236 276.64C37.5836 276.65 38.1237 277.18 38.1237 277.84Z" fill="white"/>
<path d="M51.9034 277.84C51.9034 278.5 51.3634 279.04 50.7034 279.04C50.0434 279.04 49.5034 278.5 49.5034 277.84C49.5034 277.18 50.0434 276.64 50.7034 276.64C51.3634 276.65 51.9034 277.18 51.9034 277.84Z" fill="white"/>
<path d="M65.6832 277.84C65.6832 278.5 65.1432 279.04 64.4832 279.04C63.8232 279.04 63.2832 278.5 63.2832 277.84C63.2832 277.18 63.8232 276.64 64.4832 276.64C65.1532 276.65 65.6832 277.18 65.6832 277.84Z" fill="white"/>
<path d="M79.4635 277.84C79.4635 278.5 78.9235 279.04 78.2635 279.04C77.6035 279.04 77.0635 278.5 77.0635 277.84C77.0635 277.18 77.6035 276.64 78.2635 276.64C78.9335 276.65 79.4635 277.18 79.4635 277.84Z" fill="white"/>
<path d="M93.2535 277.84C93.2535 278.5 92.7135 279.04 92.0535 279.04C91.3935 279.04 90.8535 278.5 90.8535 277.84C90.8535 277.18 91.3935 276.64 92.0535 276.64C92.7135 276.65 93.2535 277.18 93.2535 277.84Z" fill="white"/>
<path d="M107.033 277.84C107.033 278.5 106.493 279.04 105.833 279.04C105.173 279.04 104.633 278.5 104.633 277.84C104.633 277.18 105.173 276.64 105.833 276.64C106.493 276.65 107.033 277.18 107.033 277.84Z" fill="white"/>
<path d="M120.814 277.84C120.814 278.5 120.274 279.04 119.614 279.04C118.954 279.04 118.414 278.5 118.414 277.84C118.414 277.18 118.954 276.64 119.614 276.64C120.274 276.65 120.814 277.18 120.814 277.84Z" fill="white"/>
<path d="M134.593 277.84C134.593 278.5 134.053 279.04 133.393 279.04C132.733 279.04 132.193 278.5 132.193 277.84C132.193 277.18 132.733 276.64 133.393 276.64C134.053 276.65 134.593 277.18 134.593 277.84Z" fill="white"/>
<path d="M148.374 277.84C148.374 278.5 147.834 279.04 147.174 279.04C146.514 279.04 145.974 278.5 145.974 277.84C145.974 277.18 146.514 276.64 147.174 276.64C147.844 276.65 148.374 277.18 148.374 277.84Z" fill="white"/>
<path d="M162.153 277.84C162.153 278.5 161.613 279.04 160.953 279.04C160.293 279.04 159.753 278.5 159.753 277.84C159.753 277.18 160.293 276.64 160.953 276.64C161.623 276.65 162.153 277.18 162.153 277.84Z" fill="white"/>
<path d="M175.943 277.84C175.943 278.5 175.403 279.04 174.743 279.04C174.083 279.04 173.543 278.5 173.543 277.84C173.543 277.18 174.083 276.64 174.743 276.64C175.403 276.65 175.943 277.18 175.943 277.84Z" fill="white"/>
<path d="M189.723 277.84C189.723 278.5 189.183 279.04 188.523 279.04C187.863 279.04 187.323 278.5 187.323 277.84C187.323 277.18 187.863 276.64 188.523 276.64C189.183 276.65 189.723 277.18 189.723 277.84Z" fill="white"/>
<path d="M203.504 277.84C203.504 278.5 202.964 279.04 202.304 279.04C201.644 279.04 201.104 278.5 201.104 277.84C201.104 277.18 201.644 276.64 202.304 276.64C202.964 276.65 203.504 277.18 203.504 277.84Z" fill="white"/>
<path d="M217.283 277.84C217.283 278.5 216.743 279.04 216.083 279.04C215.423 279.04 214.883 278.5 214.883 277.84C214.883 277.18 215.423 276.64 216.083 276.64C216.743 276.65 217.283 277.18 217.283 277.84Z" fill="white"/>
<path d="M231.064 277.84C231.064 278.5 230.524 279.04 229.864 279.04C229.204 279.04 228.664 278.5 228.664 277.84C228.664 277.18 229.204 276.64 229.864 276.64C230.534 276.65 231.064 277.18 231.064 277.84Z" fill="white"/>
<path d="M244.843 277.84C244.843 278.5 244.303 279.04 243.643 279.04C242.983 279.04 242.443 278.5 242.443 277.84C242.443 277.18 242.983 276.64 243.643 276.64C244.313 276.65 244.843 277.18 244.843 277.84Z" fill="white"/>
<path d="M258.633 277.84C258.633 278.5 258.093 279.04 257.433 279.04C256.773 279.04 256.233 278.5 256.233 277.84C256.233 277.18 256.773 276.64 257.433 276.64C258.093 276.65 258.633 277.18 258.633 277.84Z" fill="white"/>
</svg>
