<svg width="189" height="30" viewBox="0 0 189 30" fill="none" xmlns="http://www.w3.org/2000/svg">
<g clip-path="url(#clip0_52_631)">
<path d="M23.6366 26.913C14.0209 34.248 -0.145404 27.813 0.00288879 14.967C-0.159942 6.73797 6.58299 -0.243026 14.6228 0.00597423C18.8622 -0.0540258 22.7847 1.37698 25.672 4.46998L21.7466 9.14097C15.8178 2.99698 6.52775 5.94297 6.44343 14.967C6.57718 24.123 16.0882 26.982 21.9472 20.667L25.8784 24.762C25.1849 25.5364 24.4355 26.2555 23.6366 26.913Z" fill="white"/>
<path d="M48.8115 24.7799C44.9326 32.6729 32.6476 30.5879 27.2946 25.3019L30.9612 20.7689C33.517 22.8689 36.0758 24.3239 39.3935 24.3029C41.4579 24.3029 43.3857 23.7029 43.4642 21.5579C43.5078 18.8579 39.9925 18.5249 37.7652 17.7749C34.3312 16.8239 30.6529 15.9329 29.0566 12.4949C27.1143 7.83592 29.3183 2.13892 34.241 0.644919C39.1201 -0.903081 44.796 0.458919 48.7039 3.71992L45.4793 8.54392C42.6355 6.54892 38.5008 4.50292 35.4245 6.40192C35.1326 6.61472 34.8968 6.89928 34.7384 7.22981C34.58 7.56035 34.504 7.92644 34.5173 8.29492C34.4824 10.1459 35.9711 10.6949 37.6081 11.2469C41.5103 12.5189 47.1454 13.2569 49.0034 17.5679C49.8495 19.5599 49.7419 22.7999 48.8115 24.7799Z" fill="white"/>
<path d="M53.7923 0H71.3548V5.7H59.1715L58.8459 10.8C63.4807 9.558 69.7439 10.41 71.8462 15.447C73.3814 19.098 72.7185 24.528 69.6509 27.225C64.4316 31.797 55.6503 30.423 51.0591 25.596L54.8391 20.937C57.4851 23.622 61.9804 25.419 65.1352 23.076C66.8362 21.798 66.8798 18.243 65.0538 16.989C62.8992 15.3 59 15.876 56.5924 17.025L52.9636 14.544L53.7923 0Z" fill="white"/>
<path d="M98.5708 20.8889C94.8577 32.9519 79.0893 33.0989 75.3791 20.9519C72.4278 12.1469 76.7573 -0.0931448 87.0273 0.0058552C97.2682 -0.174145 101.542 12.1529 98.5708 20.8889ZM92.6886 11.3609C91.9093 7.44586 88.0973 4.26286 84.4162 6.44986C78.9468 9.73186 79.5894 24.0749 87.0331 24.2459C92.863 24.0329 93.872 16.0259 92.6769 11.3609H92.6886Z" fill="white"/>
<path d="M115.389 29.9998L111.347 23.5528L107.294 29.9998H101.359L108.393 19.4998L101.621 9.2998H107.727L111.469 15.3208L115.249 9.2998H121.198L114.426 19.3738L121.486 29.9998H115.389Z" fill="white"/>
<path d="M133.533 0V30H130.366V0H133.533Z" fill="white"/>
<path d="M141.895 30.0001H138.819V8.63109H141.895V14.2111C143.32 10.7251 146.548 8.06409 150.345 8.25909V11.7001C148.632 11.6095 146.937 12.1053 145.525 13.1105C144.112 14.1158 143.061 15.5742 142.535 17.2591C141.462 19.8001 142.038 27.1411 141.895 30.0001Z" fill="white"/>
<path d="M155.783 11.1C154.773 11.3938 153.788 11.7741 152.84 12.237L151.918 9.63297C155.913 7.53297 162.662 6.82497 165.977 10.026C167.501 11.472 168.262 13.614 168.262 16.452V30H165.297V26.301C163.098 29.4 158.76 30.771 154.98 29.565C149.845 28.299 148.211 21.39 152.535 18.117C156.105 15.6 161.348 16.131 165.294 17.25C165.785 11.115 160.574 9.81597 155.783 11.1ZM154.797 19.884C152.017 21.945 153.203 26.415 156.454 27.156C160.147 28.29 165.352 26.106 165.337 21.66V19.593C162.398 18.753 157.347 17.931 154.797 19.896V19.884Z" fill="white"/>
<path d="M173.979 30H170.894V8.63097H173.979V12.351C174.682 11.1842 175.609 10.1785 176.703 9.39597C179.46 7.43097 184.58 7.81496 186.898 10.554C188.372 12.207 189.003 14.4 189 16.734V30H185.915V17.517C185.932 13.713 183.973 11.037 180.187 11.07C176.613 10.95 173.839 14.121 173.979 17.766V30Z" fill="white"/>
</g>
<defs>
<clipPath id="clip0_52_631">
<rect width="189" height="30" fill="white"/>
</clipPath>
</defs>
</svg>
